<?xml version="1.0" encoding="UTF-8"?>
<svg id="Layer_1" xmlns="http://www.w3.org/2000/svg" version="1.1" viewBox="0 0 311.8 94.2">
  <!-- Generator: Adobe Illustrator 29.8.1, SVG Export Plug-In . SVG Version: 2.1.1 Build 2)  -->
  <defs>
    <style>
      .st0 {
        fill: none;
      }

      .st1 {
        fill: #fff;
      }

      .st2 {
        fill: #e64325;
      }

      .st3 {
        fill: #1b315e;
      }
    </style>
  </defs>
  <polyline class="st1" points="311.8 94.2 311.8 0 0 0 0 94.2"/>
  <rect class="st3" x="5.6" y="5.6" width="300.5" height="82.9"/>
  <path class="st2" d="M86.9,5.6H5.6v82.9h105.1c-6.7-.4-12.5-1.9-17.6-4.2-6-2.8-10.8-6.6-14.3-11.4-3.5-4.8-5.7-10.4-6.6-17-.9-6.5-.6-13.7,1-21.4,1.1-5,2.7-9.8,4.8-14.4,1.5-3.6,3.4-7,5.7-10.1,1-1.5,2-2.9,3.1-4.3"/>
  <path class="st2" d="M82.3,22.6c-.3-1.2.7-1.3,1.6-1.2h14.4c.8,0,1.7.5,1.9,1l-.4,1.5c-1.4,5.1-1.8,6.5-1.9,6.7-.1.3-.8.6-1.5,0,0,0-2-2.7-3.7-4-1.8-1.4-3.9-2.2-7.1-2.8,0,0-3.2-.6-3.3-1.2"/>
  <polygon class="st1" points="30.9 65.6 43.4 65.6 48 48.6 62.6 48.6 57.9 65.6 70.4 65.6 81.4 26.1 69 26.1 64.7 40.9 50.2 40.9 54.4 26.1 41.9 26.1 30.9 65.6"/>
  <polygon class="st1" points="76.7 65.6 88 65.6 96.7 34.8 85.2 34.8 76.7 65.6"/>
  <path class="st1" d="M94.1,65.6h11.2c0,0,6.4-22.8,6.4-22.8,0,0,0-.2.6-.4.5-.2,1.2-.4,1.9-.6.8-.2,1.6-.3,2.4-.3s1.1,0,1.7,0c.6,0,1.2.1,1.8.2.6,0,.8.1,1.3.3.5.1.6,0,.8.2l2.1-8s-.5,0-2.4-.3c-.8,0-2.4-.1-3-.1-2.7,0-4.9.1-7.5.6-5.4.9-8.3,2.8-9.4,3.4l-7.8,27.8Z"/>
  <path class="st1" d="M213.5,47c-.1,1-.3,2.1-.6,3.2-.3,1.1-.7,2.1-1.1,3.2-.4,1-.9,1.9-1.5,2.7-.6.8-1.3,1.4-2.1,1.9-.8.5-1.7.7-2.7.7s-1.8-.2-2.3-.7c-.5-.5-.9-1.1-1-1.9-.2-.8-.2-1.7,0-2.7.1-1,.3-2.1.6-3.2.3-1.1.7-2.2,1.1-3.2.4-1,.9-1.9,1.5-2.7s1.3-1.4,2-1.9c.8-.5,1.7-.7,2.7-.7s1.8.2,2.3.7c.5.5.9,1.1,1.1,1.9s.2,1.7,0,2.7M224.7,43.7c-.2-2-.8-3.7-1.7-5.2-1-1.5-2.4-2.6-4.2-3.4-1.8-.8-4-1.2-6.5-1.2s-4.9.4-7.2,1.3c-2.2.9-4.3,2-6.1,3.4-1.8,1.4-3.3,3.2-4.6,5.2-1.3,2-2.2,4.1-2.9,6.4-.6,2.3-.8,4.5-.7,6.5.2,2,.7,3.7,1.7,5.1,1,1.4,2.3,2.6,4.1,3.4,1.8.8,3.9,1.3,6.5,1.3s4.9-.4,7.2-1.2c2.3-.8,4.3-2,6.1-3.4,1.8-1.5,3.3-3.2,4.6-5.2,1.3-2,2.3-4.1,2.9-6.5.6-2.3.8-4.4.7-6.4"/>
  <path class="st1" d="M249,47c-.1,1-.3,2.1-.6,3.2-.3,1.1-.7,2.1-1.1,3.2-.4,1-.9,1.9-1.5,2.7-.6.8-1.3,1.4-2.1,1.9-.8.5-1.7.7-2.7.7s-1.8-.2-2.3-.7c-.5-.5-.9-1.1-1-1.9-.2-.8-.2-1.7,0-2.7.1-1,.3-2.1.6-3.2.3-1.1.7-2.2,1.1-3.2.4-1,.9-1.9,1.5-2.7.6-.8,1.3-1.4,2-1.9.8-.5,1.7-.7,2.6-.7s1.8.2,2.3.7c.5.5.9,1.1,1.1,1.9s.2,1.7,0,2.7M260.2,43.7c-.2-2-.8-3.7-1.7-5.2-1-1.5-2.4-2.6-4.2-3.4-1.8-.8-4-1.2-6.5-1.2s-4.9.4-7.2,1.3c-2.2.9-4.3,2-6.1,3.4-1.8,1.4-3.3,3.2-4.6,5.2-1.3,2-2.2,4.1-2.9,6.4-.6,2.3-.8,4.5-.7,6.5.2,2,.7,3.7,1.7,5.1,1,1.4,2.3,2.6,4.1,3.4,1.8.8,3.9,1.3,6.5,1.3s4.9-.4,7.2-1.2c2.3-.8,4.3-2,6.1-3.4,1.8-1.5,3.3-3.2,4.6-5.2,1.3-2,2.3-4.1,2.9-6.5.6-2.3.8-4.4.7-6.4"/>
  <path class="st1" d="M143.3,44.8c-.4,2.6-2.9,2.7-10,2.7,1-2.7,3.1-5.8,7.4-5.8s2.8,1.6,2.6,3.1M143.7,33.9c-14.1.1-21.5,10.2-22.8,19.9-1.1,8.3,3.2,13.5,13.1,13.5s8.9-.6,13.2-2.5l2.1-8.3c-2.9,1.2-5.8,3.1-10.4,3.1s-5.8-.4-6.9-2.1c-.6-.9-.5-2.7-.3-3.6,13.9.7,21.7-2.4,22.8-10.6.8-6-3.7-9.6-10.7-9.6"/>
  <path class="st1" d="M178.2,46.4c-.1,1-.3,1.9-.6,2.9-.2.8-.5,1.7-.9,2.6-.3.9-.9,2.1-1.5,2.8-.6.8-1.2,1.4-2.1,2-.9.6-1.7,1.2-3,1.4-.6.1-1.4.2-1.9.1-.5-.1-.9-.3-1.3-.4-.4-.1-.8-.4-1.2-.6l4.2-15.1c.3-.1.5-.3.8-.4.4-.2.8-.3,1.3-.5.5-.1,1-.2,1.6-.2,1.3,0,2.3.3,3,.8.7.5,1.1,1.2,1.4,2,.2.8.3,1.7.1,2.7M189.2,43.9c0-2-.4-3.7-1.2-5.2-.8-1.5-2.1-2.7-3.8-3.6-1.7-.9-4.5-1.3-6.6-1.3-2.8,0-5,.2-7.1.5-2.2.3-4.2.8-6,1.4-1.9.6-3.4,1.3-4.8,1.9v.3s0,.2,0,.2l-5.8,20.5-5.1,19.4h11.4l3.1-12.5c.1,0,.2.1.4.1.5.2,1.1.4,1.9.5.7.1,1.6.2,2.5.2,3,0,5.7-.5,8-1.4s4.2-2.2,5.8-3.7c1.6-1.5,2.9-3.3,3.9-5.2,1-2,1.8-3.9,2.4-6,.6-2.2.9-4.2.9-6.2"/>
  <polygon class="st1" points="258.5 65.5 270 65.5 280.9 26.2 269.3 26.2 258.5 65.5"/>
  <polyline class="st0" points="311.8 94.2 311.8 0 0 0 0 94.2"/>
</svg>