<?xml version="1.0" encoding="UTF-8"?>
<svg id="Layer_1" xmlns="http://www.w3.org/2000/svg" version="1.1" viewBox="0 0 600 240">
  <!-- Generator: Adobe Illustrator 29.8.1, SVG Export Plug-In . SVG Version: 2.1.1 Build 2)  -->
  <defs>
    <style>
      .st0 {
        fill: #fff;
        fill-rule: evenodd;
      }
    </style>
  </defs>
  <g>
    <path class="st0" d="M284.1,212.8l1.8-1.8,229.2-88.2c3.6-1.4,4.6-5,1.4-7.1L282.6,25.4c5-3.9,11.4-4.3,17.1-3.9,82.5,30.7,164.6,63.2,246.7,95.3,1.4,1.4,1.8,2.5,0,4.3l-242.1,93.9c-7.5,2.5-13.9.4-20.7-2.1h.5Z"/>
    <path class="st0" d="M338.7,212.1c0-1.8,0-1.1,1.1-1.4,2.5-1.4,6.4-2.5,9.3-3.6,73.2-28.9,147.5-55.7,220.3-85.3,1.8-2.1,1.4-4.3-.7-5.7L336.6,26.1l10-3.9c3.9,0,7.9,0,11.8,1.4l238.5,92.5c2.1,1.1,4.6,3.6,2.1,5.7l-239.9,93.2c-7.1,2.1-13.2,0-20-2.1h0l-.4-.7h0Z"/>
  </g>
  <g>
    <path class="st0" d="M495.4,116.8c1.8,1.8,0,4.3-2.1,5l-237.1,91.8c-4.3,1.4-8.9,1.1-13.2.7-77.8-31.8-157.8-59.3-235.7-91.4-1.4-.7-5.7-2.1-6.4-2.9-3.9-4.3,6.1-6.8,8.9-7.9,76.1-31.4,154.2-57.8,230.3-88.9,5.7-1.4,10-1.4,15.7,0l239.6,93.5h0ZM153.4,126.4c-5.7,5.4-15.7,3.6-18.9-3.6s-2.5-20,5.4-23.6c5.7-2.5,13.2-1.4,16.8,4.3h.7l8.9-7.1c1.4-1.4-1.4-4.3-2.5-5.4-3.2-2.9-8.9-5.7-13.2-6.1-43.9-5-42.1,63.6.7,56.8,4.3-.7,16.8-8.2,16.8-12.5s-8.6-5.7-10.4-7.5c-1.4,0-2.5,3.2-3.6,4.3h0l-.7.4h0ZM193.7,85c-28.9,3.9-30.7,48.6-3.6,55.7,18.2,5,35.7-4.3,37.5-23.9,1.8-21.1-12.9-34.6-33.9-31.8h0ZM353.3,85c-18.2,2.5-23.6,25.7-7.1,32.1,2.5,1.1,23.9,3.9,15.4,10.7-5,3.9-14.6,0-18.9-3.9-1.4,1.4-8.6,8.6-8.2,10,0,1.1,3.9,3.9,5,4.6,12.1,7.1,34.6,5.4,37.1-11.4,1.8-10.7-3.2-16.1-12.9-18.9-3.6-1.1-15-1.8-13.2-7.1s15.7-3.2,18.6,1.4l8.2-10.7c-6.1-6.1-15.7-7.9-24.3-6.8h.4-.1ZM250.5,86.4h-14.3v54.3l1.1,1.1h32.5l1.1-1.1v-11.8l-1.1-1.1h-19.3v-41.4h0ZM273.7,141.4h13.9l14.6-37.8c.7-.7.7.4,1.1,1.1.7,1.8,6.1,15.7,5.7,16.1l-7.5.7-3.6,10.4h15.4l4.6,9.6h13.9l-21.4-55h-13.2l-22.9,55h-.7.1Z"/>
    <path class="st0" d="M189.4,101.4c6.8-7.5,21.8-3.2,23.2,7.1,1.4,11.4-2.5,22.1-15.7,20.4-12.1-1.8-14.6-19.6-7.1-27.5h-.4Z"/>
  </g>
</svg>