<?xml version="1.0" encoding="UTF-8"?>
<svg id="Layer_1" xmlns="http://www.w3.org/2000/svg" version="1.1" viewBox="0 0 170.1 170.1">
  <!-- Generator: Adobe Illustrator 29.8.1, SVG Export Plug-In . SVG Version: 2.1.1 Build 2)  -->
  <defs>
    <style>
      .st0 {
        fill: #fff;
        fill-rule: evenodd;
      }
    </style>
  </defs>
  <g>
    <path class="st0" d="M80.6,110.1l.5-.5,64.2-24.7c1-.4,1.3-1.4.4-2l-65.5-25.3c1.4-1.1,3.2-1.2,4.8-1.1,23.1,8.6,46.1,17.7,69.1,26.7.4.4.5.7,0,1.2l-67.8,26.3c-2.1.7-3.9.1-5.8-.6h0Z"/>
    <path class="st0" d="M95.9,109.9c0-.5,0-.3.3-.4.7-.4,1.8-.7,2.6-1,20.5-8.1,41.3-15.6,61.7-23.9.5-.6.4-1.2-.2-1.6l-65-25.2,2.8-1.1c1.1,0,2.2,0,3.3.4l66.8,25.9c.6.3,1.3,1,.6,1.6l-67.2,26.1c-2,.6-3.7,0-5.6-.6h0Z"/>
  </g>
  <g>
    <path class="st0" d="M139.8,83.2c.5.5,0,1.2-.6,1.4l-66.4,25.7c-1.2.4-2.5.3-3.7.2-21.8-8.9-44.2-16.6-66-25.6-.4-.2-1.6-.6-1.8-.8-1.1-1.2,1.7-1.9,2.5-2.2,21.3-8.8,43.2-16.2,64.5-24.9,1.6-.4,2.8-.4,4.4,0l67.1,26.2h0ZM44,85.9c-1.6,1.5-4.4,1-5.3-1s-.7-5.6,1.5-6.6c1.6-.7,3.7-.4,4.7,1.2h.2c0,0,2.5-2,2.5-2,.4-.4-.4-1.2-.7-1.5-.9-.8-2.5-1.6-3.7-1.7-12.3-1.4-11.8,17.8.2,15.9,1.2-.2,4.7-2.3,4.7-3.5,0-.5-2.4-1.6-2.9-2.1-.4,0-.7.9-1,1.2h0ZM55.3,74.3c-8.1,1.1-8.6,13.6-1,15.6,5.1,1.4,10-1.2,10.5-6.7.5-5.9-3.6-9.7-9.5-8.9h0ZM100,74.3c-5.1.7-6.6,7.2-2,9,.7.3,6.7,1.1,4.3,3-1.4,1.1-4.1,0-5.3-1.1-.4.4-2.4,2.4-2.3,2.8,0,.3,1.1,1.1,1.4,1.3,3.4,2,9.7,1.5,10.4-3.2.5-3-.9-4.5-3.6-5.3-1-.3-4.2-.5-3.7-2s4.4-.9,5.2.4l2.3-3c-1.7-1.7-4.4-2.2-6.8-1.9h0ZM71.2,74.7h-4v15.2l.3.3h9.1l.3-.3v-3.3l-.3-.3h-5.4v-11.6ZM77.7,90.1h3.9l4.1-10.6c.2-.2.2.1.3.3.2.5,1.7,4.4,1.6,4.5l-2.1.2-1,2.9h4.3l1.3,2.7h3.9l-6-15.4h-3.7s-6.4,15.4-6.4,15.4h0Z"/>
    <path class="st0" d="M54.1,78.9c1.9-2.1,6.1-.9,6.5,2,.4,3.2-.7,6.2-4.4,5.7-3.4-.5-4.1-5.5-2-7.7Z"/>
  </g>
</svg>