<?xml version="1.0" encoding="UTF-8"?>
<svg id="Layer_1" xmlns="http://www.w3.org/2000/svg" version="1.1" viewBox="0 0 600 240">
  <!-- Generator: Adobe Illustrator 29.8.1, SVG Export Plug-In . SVG Version: 2.1.1 Build 2)  -->
  <defs>
    <style>
      .st0 {
        fill: #fff;
        fill-rule: evenodd;
      }
    </style>
  </defs>
  <path class="st0" d="M575,148.2c5.3,4.6-.4,13.8-7.1,9.5-6.7-4.2.7-15.2,7.1-9.5ZM576,153.1c0-2.8-2.1-4.9-4.9-4.9s-4.9,2.1-4.9,4.9,2.1,4.9,4.9,4.9,4.9-2.1,4.9-4.9Z"/>
  <g>
    <g>
      <polygon class="st0" points="535.8 75.9 588 135.1 588 75.9 600 75.9 600 154.5 589.8 154.5 538.3 96.3 538.3 154.5 526.3 154.5 526.3 75.9 535.8 75.9"/>
      <path class="st0" d="M471.6,75.1c29.6-3.2,55.4,16.9,49.4,48.3-6.7,35.3-57.5,43.7-77.6,15.2-17.3-24.7-2.1-60,28.2-63.1h0v-.4ZM476.2,85.7c-42.7,3.2-33.5,67.7,9.2,58.2,36.7-7.8,28.9-61-9.2-58.2Z"/>
      <path class="st0" d="M263.5,75.9c7.8,1.1,16.6,8.8,18,16.9,2.1,12.7-.7,26.8-14.1,30.7l14.5,31h-11.6c-5.6-9.5-7.8-21.2-15.9-29.3h-27.5v29.3h-11.6v-78.7h48.7-.5ZM226.8,114.7h32.8c4.6,0,9.5-5.6,10.2-10.2.7-7.8.4-15.5-8.5-18-.4,0-4.2-.7-4.6-.7h-29.3l-1.1,1.1v28.2h.4v-.4h.1Z"/>
      <path class="st0" d="M136.9,154.5v-78.7h37.4c.7,0,6,1.4,7.4,1.8,33.9,9.2,37.7,56.4,6.7,72.7-2.5,1.1-10.6,4.2-12.7,4.2h-38.8,0ZM149.2,144.6h18.7c40.6,0,38.8-58.6,2.1-58.6h-20.8v58.6Z"/>
      <path class="st0" d="M428.6,93.8c-15.2-8.8-37.4-13.1-50.4,1.4-9.9,10.6-10.6,28.6-1.4,39.9,9.9,12,28.6,13.4,42,6.7v-15.9h-15.2v-9.5l1.1-1.1h26.1v34.2c-13.4,6.7-33.5,8.8-47.6,3.5-31-11.6-33.2-55-4.9-71.6,15.5-9.2,35.3-7.1,50.8,1.1v11.6h0l-.4-.4h-.1Z"/>
      <path class="st0" d="M363.7,154.5h-11.6l-8.1-18-2.1-1.1h-35.6l-8.8,19h-11.6l34.6-77.6c1.4-1.8,7.1-1.1,9.2-.7l34.9,78.3h-.9ZM338.6,124.5l-14.1-31-14.1,31h28.6-.4Z"/>
    </g>
    <g>
      <path class="st0" d="M100.9,113.9c0,28.2-22.9,50.4-50.4,50.4S0,142.2,0,113.9s22.9-50.4,50.4-50.4,50.4,22.9,50.4,50.4h0ZM95.9,113.9c0-25.4-20.1-45.5-45.5-45.5S4.9,88.6,4.9,113.9s20.1,45.5,45.5,45.5,45.5-20.1,45.5-45.5Z"/>
      <path class="st0" d="M14.5,130.5l-2.5-5.3c-1.1-5.3-1.1-9.5,0-14.5.7-2.5,2.5-5.3,2.1-7.8l-2.5,2.1c0-10.6,15.5-27.9,25.7-28.9,2.8-.4,8.1,5.3,9.9,7.8-6.3-1.4-6.7-4.6-12.7,0-8.5,6.3-13.1,20.1-8.1,30l13.4,1.1v-2.1c-1.8,0-2.8-.4-2.5-1.8l3.9-2.8-2.5-2.1,4.6-3.2-2.1-2.8c7.1-1.8,10.6-7.8,16.2-11.6,1.8,0,1.4,2.8,2.1,3.9-1.4,0-3.5.7-3.2,2.5,3.5-1.1,5.3-3.2,6.3-6.7,3.5,5.6-3.5,7.1-6.7,9.5l5.3-1.8v3.9c-3.5,0-4.6,4.6-5.3,7.4l-2.5-1.4c-.7,8.5,1.4,17.3,7.1,24l-2.8-11.6c4.6-4.6,10.6-2.8,16.2-3.5,3.5-6.3,2.5-15.5-.7-21.5-1.8-3.2-7.8-10.2-11.6-10.9-2.1,0-5.6,2.8-8.1,2.5l8.8-7.8c11.6,3.2,24.7,15.9,26.8,28.2,0,.7.7,1.8-.4,1.4l-2.5-3.2c0,1.8,1.4,3.9,2.1,6,1.8,6,2.1,10.9.7,16.9l-2.5,5.3c0-3.9.4-7.4,0-11.3,0-.7,0-3.2-1.1-3.2v10.9c0,.7-2.1,6-2.5,7.4-2.5,5.6-6.7,10.6-11.6,14.1l5.3-9.9,1.1-5.3c-7.8,9.9-20.8,14.8-33.9,12.3,2.1,6,13.8,5.6,18.3,2.8,1.1-.7,1.8-2.1,2.5-2.8,2.5-1.4,5.3-2.5,7.4-3.9,0,1.1-.7,1.8-1.4,2.8-8.1,12-30.7,13.8-38.4,0-1.1-1.8-1.4-4.6-2.1-5.6-.7-1.1-5.6-3.5-5.6-6-1.1,0-.7,1.4-.4,2.1,0,1.4,1.1,3.2,1.4,4.2,1.1,2.5,3.5,5.3,4.2,7.1,0,.7,0,1.4-1.1,1.1-.4,0-5.3-4.9-6-6-2.5-2.8-6.7-11.6-6.7-15.5v-9.5h-.7c.4,1.1-.7,2.5-.7,2.8v10.9h-.4v-.7h.4Z"/>
    </g>
  </g>
  <path class="st0" d="M574.3,155.9c-2.5,1.1-2.1-3.2-3.5-2.8v2.8h-2.1v-6.3c1.4-.7,4.9,0,5.3.7,1.1,1.4-2.1,3.5,0,5.6h.4-.1Z"/>
</svg>