<?xml version="1.0" encoding="UTF-8"?>
<svg id="Layer_1" xmlns="http://www.w3.org/2000/svg" version="1.1" viewBox="0 0 170.1 170.1">
  <!-- Generator: Adobe Illustrator 29.8.1, SVG Export Plug-In . SVG Version: 2.1.1 Build 2)  -->
  <defs>
    <style>
      .st0 {
        fill: #fff;
        fill-rule: evenodd;
      }
    </style>
  </defs>
  <path class="st0" d="M163,88.7c1.5,1.3-.1,3.9-2,2.7s.2-4.3,2-2.7ZM163.3,90.1c0-.8-.6-1.4-1.4-1.4s-1.4.6-1.4,1.4.6,1.4,1.4,1.4,1.4-.6,1.4-1.4Z"/>
  <g>
    <g>
      <polygon class="st0" points="151.9 68.2 166.7 85 166.7 68.2 170.1 68.2 170.1 90.5 167.2 90.5 152.6 74 152.6 90.5 149.2 90.5 149.2 68.2 151.9 68.2"/>
      <path class="st0" d="M133.7,68c8.4-.9,15.7,4.8,14,13.7-1.9,10-16.3,12.4-22,4.3-4.9-7-.6-17,8-17.9h0ZM135,71c-12.1.9-9.5,19.2,2.6,16.5,10.4-2.2,8.2-17.3-2.6-16.5Z"/>
      <path class="st0" d="M74.7,68.2c2.2.3,4.7,2.5,5.1,4.8.6,3.6-.2,7.6-4,8.7l4.1,8.8h-3.3c-1.6-2.7-2.2-6-4.5-8.3h-7.8v8.3h-3.3v-22.3h13.8-.1ZM64.3,79.2h9.3c1.3,0,2.7-1.6,2.9-2.9.2-2.2.1-4.4-2.4-5.1-.1,0-1.2-.2-1.3-.2h-8.3l-.3.3v8h.1Z"/>
      <path class="st0" d="M38.8,90.5v-22.3h10.6c.2,0,1.7.4,2.1.5,9.6,2.6,10.7,16,1.9,20.6-.7.3-3,1.2-3.6,1.2h-11ZM42.3,87.7h5.3c11.5,0,11-16.6.6-16.6h-5.9s0,16.6,0,16.6Z"/>
      <path class="st0" d="M121.5,73.3c-4.3-2.5-10.6-3.7-14.3.4-2.8,3-3,8.1-.4,11.3,2.8,3.4,8.1,3.8,11.9,1.9v-4.5h-4.3v-2.7l.3-.3h7.4v9.7c-3.8,1.9-9.5,2.5-13.5,1-8.8-3.3-9.4-15.6-1.4-20.3,4.4-2.6,10-2,14.4.3v3.3h0Z"/>
      <path class="st0" d="M103.1,90.5h-3.3l-2.3-5.1-.6-.3h-10.1l-2.5,5.4h-3.3l9.8-22c.4-.5,2-.3,2.6-.2l9.9,22.2h-.1ZM96,82l-4-8.8-4,8.8h8.1Z"/>
    </g>
    <g>
      <path class="st0" d="M28.6,79c0,8-6.5,14.3-14.3,14.3S0,87,0,79s6.5-14.3,14.3-14.3,14.3,6.5,14.3,14.3ZM27.2,79c0-7.2-5.7-12.9-12.9-12.9s-12.9,5.7-12.9,12.9,5.7,12.9,12.9,12.9,12.9-5.7,12.9-12.9Z"/>
      <path class="st0" d="M4.1,83.7l-.7-1.5c-.3-1.5-.3-2.7,0-4.1.2-.7.7-1.5.6-2.2l-.7.6c0-3,4.4-7.9,7.3-8.2.8-.1,2.3,1.5,2.8,2.2-1.8-.4-1.9-1.3-3.6,0-2.4,1.8-3.7,5.7-2.3,8.5l3.8.3v-.6c-.5,0-.8-.1-.7-.5l1.1-.8-.7-.6,1.3-.9-.6-.8c2-.5,3-2.2,4.6-3.3.5,0,.4.8.6,1.1-.4,0-1,.2-.9.7,1-.3,1.5-.9,1.8-1.9,1,1.6-1,2-1.9,2.7l1.5-.5v1.1c-1,0-1.3,1.3-1.5,2.1l-.7-.4c-.2,2.4.4,4.9,2,6.8l-.8-3.3c1.3-1.3,3-.8,4.6-1,1-1.8.7-4.4-.2-6.1-.5-.9-2.2-2.9-3.3-3.1-.6,0-1.6.8-2.3.7l2.5-2.2c3.3.9,7,4.5,7.6,8,0,.2.2.5-.1.4l-.7-.9c0,.5.4,1.1.6,1.7.5,1.7.6,3.1.2,4.8l-.7,1.5c0-1.1.1-2.1,0-3.2,0-.2,0-.9-.3-.9v3.1c0,.2-.6,1.7-.7,2.1-.7,1.6-1.9,3-3.3,4l1.5-2.8.3-1.5c-2.2,2.8-5.9,4.2-9.6,3.5.6,1.7,3.9,1.6,5.2.8.3-.2.5-.6.7-.8.7-.4,1.5-.7,2.1-1.1,0,.3-.2.5-.4.8-2.3,3.4-8.7,3.9-10.9,0-.3-.5-.4-1.3-.6-1.6-.2-.3-1.6-1-1.6-1.7-.3,0-.2.4-.1.6,0,.4.3.9.4,1.2.3.7,1,1.5,1.2,2,0,.2,0,.4-.3.3-.1,0-1.5-1.4-1.7-1.7-.7-.8-1.9-3.3-1.9-4.4v-2.7h-.2c.1.3-.2.7-.2.8v3.1h-.1Z"/>
    </g>
  </g>
  <path class="st0" d="M162.8,90.9c-.7.3-.6-.9-1-.8v.8h-.6v-1.8c.4-.2,1.4,0,1.5.2.3.4-.6,1,0,1.6h.1Z"/>
</svg>