<?xml version="1.0" encoding="UTF-8"?>
<svg id="Layer_1" xmlns="http://www.w3.org/2000/svg" version="1.1" viewBox="0 0 600 240">
  <!-- Generator: Adobe Illustrator 29.8.1, SVG Export Plug-In . SVG Version: 2.1.1 Build 2)  -->
  <defs>
    <style>
      .st0 {
        fill: #fff;
        fill-rule: evenodd;
      }
    </style>
  </defs>
  <polygon class="st0" points="44.3 113.7 15.7 113.7 15.7 89 0 89 0 154.8 15.7 154.8 15.7 128 44.3 128 44.3 154.8 60 154.8 60 89 44.3 89 44.3 113.7"/>
  <path class="st0" d="M107.2,100.8h0c-2.1,3.6-4.6,7.1-6.8,10.7-2.5-3.6-5-7.5-6.8-10.4l-7.9-11.8h-18.6l25.4,36.5v29.3h15.7v-29.3l25.4-36.5h-18.2l-7.9,11.8h0l-.4-.4Z"/>
  <path class="st0" d="M164,89h-24.7v65.8h24.7c10,0,18.2-3.2,24.3-9.3s9.6-14.3,9.6-23.6-3.2-17.5-9.6-23.6c-6.1-6.1-14.7-9.3-24.7-9.3h.4ZM176.5,136.2c-3.6,3.2-8.2,4.6-13.9,4.6h-7.9v-37.9h7.9c5.7,0,10.4,1.4,13.9,4.6s5.7,8.6,5.7,14.3-2.1,10.7-5.7,14.3h0Z"/>
  <polygon class="st0" points="340.6 154.8 356.6 154.8 356.6 128.7 379.5 128.7 379.5 115.1 356.6 115.1 356.6 102.9 383.1 102.9 383.1 89 340.6 89 340.6 154.8"/>
  <polygon class="st0" points="404.9 89 389.2 89 389.2 154.8 433.8 154.8 433.8 140.8 404.9 140.8 404.9 89"/>
  <path class="st0" d="M583.9,89l-8.6,27.9c-1.4,4.3-2.9,9.3-3.9,14.3-1.1-4.3-2.5-8.6-4.3-13.9l-8.6-27.9h-11.4l-8.6,27.9c-1.4,4.3-2.9,9.3-3.9,13.9-1.1-4.6-2.5-9.3-3.9-13.9l-8.2-27.5v-.7h-16.8l20,65v.7h16.1l7.1-22.9c1.4-4.6,2.9-8.9,3.9-12.9,1.1,3.9,2.5,8.2,3.9,12.9l7.1,22.9h16.1l20-65.4h-16.1v-.4Z"/>
  <path class="st0" d="M258.7,109.7c0-6.8-2.9-12.5-7.9-16.1-4.3-3.2-9.6-4.6-17.2-4.6h-29.3v65.8h15.7v-24.3h10.4l15.7,24.3h18.2l-17.9-26.8c7.5-3.2,11.8-10,11.8-18.2h.4ZM240.1,116.2c-1.8,1.1-3.9,1.8-7.5,1.8h-12.5v-14.7h12.5c3.6,0,5.7.4,7.5,1.8,1.8,1.1,2.5,3.2,2.5,5.7s-1.1,4.6-2.5,5.7h0v-.4Z"/>
  <path class="st0" d="M299.5,86.9c-19.3,0-35,15.7-35,35s15.7,35,35,35,35-15.7,35-35-15.7-35-35-35ZM299.5,140.5c-10,0-18.6-8.2-18.6-18.6s8.2-18.6,18.6-18.6,18.6,8.2,18.6,18.6-8.2,18.6-18.6,18.6Z"/>
  <path class="st0" d="M500.3,103.3l-12.9,10.4h0c1.1,2.9,1.8,5.4,1.8,8.2,0,10.4-8.2,18.6-18.6,18.6s-18.6-8.2-18.6-18.6.7-5.4,1.8-7.9h0c0-.4-12.9-10.7-12.9-10.7v.7c-3.6,5.4-5.4,11.8-5.4,17.9,0,19.3,15.7,35,35,35s35-15.7,35-35-1.8-12.5-5-17.9v-.7h-.4Z"/>
  <polygon class="st0" points="470.6 93.3 484.2 109.4 497.4 99 471.4 69.7 470.6 69 444.6 98.7 444.2 99 457.1 109.4 470.6 93.3"/>
</svg>