<?xml version="1.0" encoding="UTF-8"?>
<svg id="Layer_1" xmlns="http://www.w3.org/2000/svg" version="1.1" viewBox="0 0 170.1 170.1">
  <!-- Generator: Adobe Illustrator 29.8.1, SVG Export Plug-In . SVG Version: 2.1.1 Build 2)  -->
  <defs>
    <style>
      .st0 {
        fill: #fff;
        fill-rule: evenodd;
      }
    </style>
  </defs>
  <polygon class="st0" points="13.5 78.2 5.5 78.2 5.5 71.3 1.1 71.3 1.1 89.7 5.5 89.7 5.5 82.2 13.5 82.2 13.5 89.7 17.9 89.7 17.9 71.3 13.5 71.3 13.5 78.2"/>
  <path class="st0" d="M31.1,74.6h0c-.6,1-1.3,2-1.9,3-.7-1-1.4-2.1-1.9-2.9l-2.2-3.3h0s-5.2,0-5.2,0l7.1,10.2v8.2h4.4v-8.2l7.1-10.2h-5.1l-2.2,3.3h0Z"/>
  <path class="st0" d="M47,71.3h-6.9v18.4h6.9c2.8,0,5.1-.9,6.8-2.6,1.7-1.7,2.7-4,2.7-6.6s-.9-4.9-2.7-6.6c-1.7-1.7-4.1-2.6-6.9-2.6h0ZM50.5,84.5c-1,.9-2.3,1.3-3.9,1.3h-2.2v-10.6h2.2c1.6,0,2.9.4,3.9,1.3,1,.9,1.6,2.4,1.6,4s-.6,3-1.6,4h0Z"/>
  <polygon class="st0" points="96.4 89.7 100.9 89.7 100.9 82.4 107.3 82.4 107.3 78.6 100.9 78.6 100.9 75.2 108.3 75.2 108.3 71.3 96.4 71.3 96.4 89.7"/>
  <polygon class="st0" points="114.4 71.3 110 71.3 110 89.7 122.5 89.7 122.5 85.8 114.4 85.8 114.4 71.3"/>
  <path class="st0" d="M164.5,71.3l-2.4,7.8c-.4,1.2-.8,2.6-1.1,4-.3-1.2-.7-2.4-1.2-3.9l-2.4-7.8h0c0,0-3.2,0-3.2,0l-2.4,7.8c-.4,1.2-.8,2.6-1.1,3.9-.3-1.3-.7-2.6-1.1-3.9l-2.3-7.7v-.2h-4.7l5.6,18.2v.2h4.5l2-6.4c.4-1.3.8-2.5,1.1-3.6.3,1.1.7,2.3,1.1,3.6l2,6.4h0c0,0,4.5,0,4.5,0l5.6-18.3h0c0,0-4.5,0-4.5,0h0Z"/>
  <path class="st0" d="M73.5,77.1c0-1.9-.8-3.5-2.2-4.5-1.2-.9-2.7-1.3-4.8-1.3h-8.2v18.4h4.4v-6.8h2.9l4.4,6.8h0s5.1,0,5.1,0l-5-7.5c2.1-.9,3.3-2.8,3.3-5.1h0ZM68.3,78.9c-.5.3-1.1.5-2.1.5h-3.5v-4.1h3.5c1,0,1.6.1,2.1.5.5.3.7.9.7,1.6s-.3,1.3-.7,1.6h0Z"/>
  <path class="st0" d="M84.9,70.7c-5.4,0-9.8,4.4-9.8,9.8s4.4,9.8,9.8,9.8,9.8-4.4,9.8-9.8-4.4-9.8-9.8-9.8ZM84.9,85.7c-2.8,0-5.2-2.3-5.2-5.2s2.3-5.2,5.2-5.2,5.2,2.3,5.2,5.2-2.3,5.2-5.2,5.2Z"/>
  <path class="st0" d="M141.1,75.3l-3.6,2.9h0c.3.8.5,1.5.5,2.3,0,2.9-2.3,5.2-5.2,5.2s-5.2-2.3-5.2-5.2.2-1.5.5-2.2h0c0-.1-3.6-3-3.6-3v.2c-1,1.5-1.5,3.3-1.5,5,0,5.4,4.4,9.8,9.8,9.8s9.8-4.4,9.8-9.8-.5-3.5-1.4-5v-.2Z"/>
  <polygon class="st0" points="132.8 72.5 136.6 77 140.3 74.1 133 65.9 132.8 65.7 125.5 74 125.4 74.1 129 77 132.8 72.5"/>
</svg>