<?xml version="1.0" encoding="UTF-8"?>
<svg id="Layer_1" xmlns="http://www.w3.org/2000/svg" version="1.1" viewBox="0 0 600 240">
  <!-- Generator: Adobe Illustrator 29.8.1, SVG Export Plug-In . SVG Version: 2.1.1 Build 2)  -->
  <defs>
    <style>
      .st0 {
        fill: #fff;
        fill-rule: evenodd;
      }
    </style>
  </defs>
  <g>
    <polygon class="st0" points="13.2 33.3 13.2 89.2 64.2 33.3 77.3 33.3 25.3 87.4 78.4 154.1 62.4 154.1 13.2 92.8 13.2 154.1 .3 154.1 .3 33.3 13.2 33.3"/>
    <path class="st0" d="M182.5,63.6c8.2,1.1,18.5,7.5,19.6,16,2.5,17.1-9.7,26-24.6,29.2l32.1,45.2h-13.2l-30.3-43.2-5-1.1v42.8c-2.5,2.9-7.5,1.1-11.1,1.4V63.2c10.4.7,22.4-1.1,32.4,0h0v.4ZM160.8,67.9v36.7c16.3.4,32.1-2.9,30.3-22.4-1.4-15.3-18.5-14.3-30.3-14.3Z"/>
    <path class="st0" d="M289.3,154.1l-12.5-1.1-12.5-34.6h-29.2l-12.5,33.9c-1.8,2.9-5.7,1.8-8.6,1.8l36.7-93.4h2.9c0,.4,35.7,93.4,35.7,93.4h0ZM261.5,112l-12.9-32.1-11.1,32.1s23.9,0,23.9,0Z"/>
    <path class="st0" d="M448,60.7l34.9,93.4-11.4-.7-12.2-34.2h-29.6l-12.9,33.9c-1.8,2.5-5.4,1.1-8.2,1.4v-3.6c.4,0,36.7-89.4,36.7-89.4h2.9v-.4l-.4-.4h0ZM456.2,112l-12.5-32.1-12.5,32.1s24.9,0,24.9,0Z"/>
    <path class="st0" d="M130.5,63.6v6.4h-31.4v32.1h27.8c2.1,1.4,1.4,4.3,1.4,6.4h-29.2v38.5h32.1v6.4h-43.2V63.6h42.5Z"/>
    <path class="st0" d="M340.7,77.2c-10.4-13.9-37.1-15-35.7,6.8,1.4,22.1,41.7,13.6,42.5,42.1,0,20.6-16.7,31.7-36,29.6-2.5,0-11.1-2.1-12.9-3.6-2.9-2.1-.7-9.3-1.4-12.9,10,15.3,39.9,15.6,40.3-6.1.7-26.4-42.8-16.3-42.5-46.6.4-23.5,27.4-30.3,45.6-20.6v11.1h.4l-.4.4h0Z"/>
    <polygon class="st0" points="597.3 63.6 597.3 70 566.3 70 566.3 102.1 594.8 102.1 594.8 108.5 566.3 108.5 566.3 147 598.3 147 598.3 153.4 555.2 153.4 555.2 63.6 597.3 63.6"/>
    <path class="st0" d="M534.9,65.4v10.7c-8.6-10.7-28.1-15.6-34.2,0-7.9,21,19.6,23.1,31.4,31,16.3,11.1,10.7,37.1-5.7,44.9-8.2,3.9-25.3,4.6-33.2-.7-3.9-2.5-1.4-8.2-2.1-12.2l8.2,6.8c13.2,9.3,32.4,2.9,32.1-14.7-.4-24.2-39.6-16-41.4-42.1-1.8-26,24.6-33.9,44.9-24.2h0v.4h0Z"/>
    <polygon class="st0" points="413 63.6 413 68.9 388.4 68.9 388.4 154.1 377.4 154.1 377.4 68.9 351.7 68.9 351.7 63.6 413 63.6"/>
    <path class="st0" d="M99.5,56.1c3.6-3.6,18.1-23.1,22.4-22.8s5.4,5.4,2.5,8.6c-1.1,1.1-17.8,13.2-19.2,13.6-1.8.7-3.2.7-5.4.7h-.4,0Z"/>
  </g>
  <g>
    <path class="st0" d="M293.6,176.1c11.4-5.7,25,5.7,9.3,12.9l9.3,13.2c-6.8,1.1-8.9-7.2-12.5-11.8-.7-.7,0-1.8-2.1-1.1v12.9h-3.6v-26.1h-.4,0ZM297.6,187.6c11.1.7,12.2-12.5,0-11.1v11.1Z"/>
    <path class="st0" d="M233.9,189.4v12.9h-3.6v-26.1c4.3-2.9,15-2.1,16.4,3.9,1.4,7.5-6.8,10-12.9,9.3h.1ZM235,187.6c11.4.7,11.4-11.8,0-11.1v11.1Z"/>
    <path class="st0" d="M267.9,174.7l10,27.5c-6.4,1.1-4.6-6.1-7.2-9.7h-8.6c0-.4-3.6,9.7-3.6,9.7h-3.6c4.3-7.5,6.8-18.6,10.7-26.5.7-1.1,0-1.4,2.1-1.1h.2ZM270,189.4l-3.2-8.2-3.2,8.2h6.4Z"/>
    <path class="st0" d="M358,174.7v3.6c-3.6-3.6-11.1-4.3-10.7,2.1,0,6.1,11.8,4.3,12.9,12.2,1.1,9.7-14.3,14.3-15.7,5,2.1-.4,2.5,2.1,4.3,2.5,5,1.4,8.2-.7,7.9-5.7-.7-7.2-11.4-3.6-12.2-11.8s7.2-10.4,13.6-7.5v-.4h0Z"/>
    <path class="st0" d="M329.7,174.7v27.5h-3.6v-26.1c0-1.1,2.5-1.8,3.6-1.4h0Z"/>
  </g>
</svg>