<?xml version="1.0" encoding="UTF-8"?>
<svg id="Layer_1" xmlns="http://www.w3.org/2000/svg" version="1.1" viewBox="0 0 170.1 170.1">
  <!-- Generator: Adobe Illustrator 29.8.1, SVG Export Plug-In . SVG Version: 2.1.1 Build 2)  -->
  <defs>
    <style>
      .st0 {
        fill: #fff;
        fill-rule: evenodd;
      }
    </style>
  </defs>
  <g>
    <polygon class="st0" points="4.1 59.2 4.1 74.9 18.4 59.2 22.1 59.2 7.5 74.4 22.4 93.1 17.9 93.1 4.1 75.9 4.1 93.1 .5 93.1 .5 59.2 4.1 59.2"/>
    <path class="st0" d="M51.6,67.7c2.3.3,5.2,2.1,5.5,4.5.7,4.8-2.7,7.3-6.9,8.2l9,12.7h-3.7l-8.5-12.1-1.4-.3v12c-.7.8-2.1.3-3.1.4v-25.5c2.9.2,6.3-.3,9.1,0h0ZM45.5,68.9v10.3c4.6.1,9-.8,8.5-6.3-.4-4.3-5.2-4-8.5-4Z"/>
    <path class="st0" d="M81.6,93.1l-3.5-.3-3.5-9.7h-8.2c0,0-3.5,9.5-3.5,9.5-.5.8-1.6.5-2.4.5l10.3-26.2h.8c0,.1,10,26.2,10,26.2h0ZM73.8,81.3l-3.6-9-3.1,9h6.7Z"/>
    <path class="st0" d="M126.1,66.9l9.8,26.2-3.2-.2-3.4-9.6h-8.3s-3.6,9.5-3.6,9.5c-.5.7-1.5.3-2.3.4v-1c.1,0,10.3-25.1,10.3-25.1h.8c0-.1,0-.1,0-.1ZM128.4,81.3l-3.5-9-3.5,9h6.9Z"/>
    <path class="st0" d="M37,67.7v1.8h-8.8v9h7.8c.6.4.4,1.2.4,1.8h-8.2v10.8h9v1.8h-12.1v-25.2h11.8Z"/>
    <path class="st0" d="M96,71.5c-2.9-3.9-10.4-4.2-10,1.9.4,6.2,11.7,3.8,11.9,11.8,0,5.8-4.7,8.9-10.1,8.3-.7,0-3.1-.6-3.6-1-.8-.6-.2-2.6-.4-3.6,2.8,4.3,11.2,4.4,11.3-1.7.2-7.4-12-4.6-11.9-13.1.1-6.6,7.7-8.5,12.8-5.8v3.1c.1,0,.1,0,.1,0Z"/>
    <polygon class="st0" points="168 67.7 168 69.5 159.3 69.5 159.3 78.5 167.3 78.5 167.3 80.3 159.3 80.3 159.3 91.1 168.3 91.1 168.3 92.9 156.2 92.9 156.2 67.7 168 67.7"/>
    <path class="st0" d="M150.5,68.2v3c-2.4-3-7.9-4.4-9.6,0-2.2,5.9,5.5,6.5,8.8,8.7,4.6,3.1,3,10.4-1.6,12.6-2.3,1.1-7.1,1.3-9.3-.2-1.1-.7-.4-2.3-.6-3.4l2.3,1.9c3.7,2.6,9.1.8,9-4.1-.1-6.8-11.1-4.5-11.6-11.8-.5-7.3,6.9-9.5,12.6-6.8h0Z"/>
    <polygon class="st0" points="116.3 67.7 116.3 69.2 109.4 69.2 109.4 93.1 106.3 93.1 106.3 69.2 99.1 69.2 99.1 67.7 116.3 67.7"/>
    <path class="st0" d="M28.3,65.6c1-1,5.1-6.5,6.3-6.4s1.5,1.5.7,2.4c-.3.3-5,3.7-5.4,3.8-.5.2-.9.2-1.5.2Z"/>
  </g>
  <g>
    <path class="st0" d="M82.8,99.2c3.2-1.6,7,1.6,2.6,3.6l2.6,3.7c-1.9.3-2.5-2-3.5-3.3-.2-.2,0-.5-.6-.3v3.6h-1v-7.3h0ZM83.9,102.4c3.1.2,3.4-3.5,0-3.1v3.1Z"/>
    <path class="st0" d="M66.1,102.9v3.6h-1v-7.3c1.2-.8,4.2-.6,4.6,1.1.4,2.1-1.9,2.8-3.6,2.6ZM66.4,102.4c3.2.2,3.2-3.3,0-3.1v3.1Z"/>
    <path class="st0" d="M75.6,98.8l2.8,7.7c-1.8.3-1.3-1.7-2-2.7h-2.4c0-.1-1,2.7-1,2.7h-1c1.2-2.1,1.9-5.2,3-7.4.2-.3,0-.4.6-.3h0ZM76.2,102.9l-.9-2.3-.9,2.3h1.8Z"/>
    <path class="st0" d="M100.8,98.8v1c-1-1-3.1-1.2-3,.6,0,1.7,3.3,1.2,3.6,3.4.3,2.7-4,4-4.4,1.4.6-.1.7.6,1.2.7,1.4.4,2.3-.2,2.2-1.6-.2-2-3.2-1-3.4-3.3s2-2.9,3.8-2.1Z"/>
    <path class="st0" d="M92.9,98.8v7.7h-1v-7.3c0-.3.7-.5,1-.4h0Z"/>
  </g>
</svg>