<?xml version="1.0" encoding="UTF-8"?>
<svg id="Layer_1" xmlns="http://www.w3.org/2000/svg" version="1.1" viewBox="0 0 400 400">
  <!-- Generator: Adobe Illustrator 29.8.1, SVG Export Plug-In . SVG Version: 2.1.1 Build 2)  -->
  <defs>
    <style>
      .st0 {
        fill-rule: evenodd;
      }

      .st0, .st1 {
        fill: #fff;
      }
    </style>
  </defs>
  <path class="st0" d="M176.3,84.3c-.7-6-5.3-12.3-9.8-15.8-6-4.6-18.3-7-17.2-16.2h4.2c-15.5-7-34.4-17.9-29.2-38.3,3.9-1.4,7.4-1.4,9.8-5.3-3.9,0-13.3,4.2-10.2-3.5,4.9-12.6,17.9,0,25.3,3.5,3.5,1.8,10.9,6,14.8,6.3,3.2,0,6.3-2.5,9.5-3.5,16.2-4.9,28.8-1.1,41.1,9.8,22.1,19,8.1,32.7-2.1,52.7-4.9,9.5-9.1,19-14.1,28.1-.7,0-6.7-10.2-7-11.9-2.1-13,2.5-30.2.7-43.9.7-3.9,10.2-3.5,12.3-7-2.8.7-14.1,2.1-14.8,4.6v46l8.4,15.5,28.5-52v69.6h-50.6c-1.1-11.9,1.4-26.7,0-38.6h.4ZM184.8,31.6c1.1-4.2-2.1-12.3-7-8.4-5.6,4.2,5.3,5.3,5.6,5.3,1.1.7,0,3.2,1.4,2.8v.4Z"/>
  <path class="st0" d="M226.9,311.5c-10.9,7.4-23.2,12.3-18.6,27.8,3.2,11.9,21.1,11.6,23.2-.7.7-3.9-.4-8.8-4.6-9.8,5.3,10.2-10.2,14.1-11.6,5.3-1.8-12.3,19-12.6,21.4,1.1,3.9,21.8-25.3,25.6-35.1,10.2-6.7,11.9-27,13-33.4,0-7.7-15.8,11.9-27.4,19-17.2,8.1,12.3-16.9,15.1-9.8.4-3.2,0-4.6,3.5-4.9,6.3-1.8,16.2,21.8,18.6,23.9,1.8,1.8-13.3-8.8-18.6-19-23.5v-81.1h48.5l1.4,1.4v78.7h0l-.4-.4Z"/>
  <rect class="st1" x="37.6" y="388.8" width="328.5" height="10.9"/>
  <path class="st0" d="M261.7,231.8v78.3c-7,4.9-15.8,10.2-24.2,5.3-3.2-1.8-6.3-7.7-6.3-10.9v-71.3l1.4-1.4h29.5-.4Z"/>
  <path class="st0" d="M141.6,231.8h29.5l1.4,1.4v71.3c0,3.5-3.2,9.1-6.3,10.9-8.4,4.9-17.2,0-24.2-5.3v-78.3h-.4Z"/>
  <path class="st0" d="M258.5,135.9h16.9c4.6,0,11.2,4.2,13.7,8.1,4.9,8.1,4.2,40.7,3.5,51.3-1.1,16.9-6,22.5-22.8,23.5-3.2,0-8.8.7-11.2-1.4,0,0,0-81.5,0-81.5ZM270.8,148.2v56.6c3.5,2.1,7-.4,8.1-4.2,2.1-8.8,1.8-28.5,1.1-37.9-.4-6.3-.4-15.8-9.1-14.4Z"/>
  <path class="st0" d="M127.2,135.9c18.3,2.5,19.3,32,8.8,43.2l7.4,39.3-11.9-.7-6.3-33.7h-3.2v34.8h-12.3v-82.6c5.6.7,12.3-.7,17.9,0h0l-.4-.4ZM121.9,172.1c11.9.4,12.3-24.6,0-23.9v23.9Z"/>
  <path class="st0" d="M181.6,218.5h-12.3l-6-33.4-3.2-1.4v34.8h-12.3v-82.6h16.9s4.9,1.4,5.6,1.8c13.7,6.3,13,31.3,3.9,41.5l7.4,39.3h0ZM159.8,172.1c11.6.4,11.6-24.9,0-23.9v23.9Z"/>
  <path class="st0" d="M197.1,135.2c10.5-1.8,19,3.5,20,14.4,2.1,17.6-1.4,39,0,56.9-5.3,18.6-29.9,17.2-32-3.2-1.1-11.6-1.4-42.5,0-53.7.7-6.3,5.6-13.3,12.3-14.4h-.4ZM199.5,147.5c-1.8.7-2.1,2.8-2.1,4.6-1.1,10.5-1.1,39.3,0,49.5.7,6.3,6.7,8.1,7.4.7,1.8-15.8-1.4-35.1,0-51.3,0-2.8-2.8-4.6-5.3-3.5Z"/>
  <path class="st0" d="M308.8,135.2c10.5-1.8,19,3.5,20,14.4,1.8,17.6-1.4,39,0,56.9-5.3,18.6-29.9,17.2-32-3.2-1.1-11.6-1.4-42.2,0-53.4.7-6.3,5.3-13.3,11.9-14.4h0v-.4ZM311.2,147.5c-1.8.7-2.1,2.8-2.1,4.6-1.1,10.5-1.1,39.3,0,49.5.7,6.3,6.7,8.1,7.4.7,1.8-15.8-1.4-35.1,0-51.3,0-2.8-2.8-4.6-5.3-3.5Z"/>
  <path class="st0" d="M296.5,231.8v62.5c-6.7,5.3-15.8,10.2-24.2,5.3-3.5-2.1-6.3-8.1-6.3-11.9v-54.5l1.4-1.4h29.5-.4Z"/>
  <path class="st0" d="M107.1,231.8h29.5l1.4,1.4v54.5c0,3.5-3.2,9.8-6.3,11.9-8.4,4.9-17.6,0-24.2-5.3v-62.5h-.4Z"/>
  <path class="st0" d="M366,165.8h-12.3v-15.5c0-2.8-6.7-5.6-7.4,1.8-1.8,16.5,1.4,35.5,0,52,0,1.8,1.1,3.5,2.8,3.9,1.8.7,4.6-1.4,4.6-2.8v-16.9h-4.9v-10.9h17.6v41.5h-7.4l-1.4-3.2c-10.2,8.4-22.5,2.8-23.5-10.2-1.1-13-1.4-42.2,0-55.5,1.8-15.1,20.7-20,28.8-8.4.7,1.1,3.2,6.7,3.2,7.4v16.9h0Z"/>
  <path class="st0" d="M94.5,135.9l12.6,82.6h-11.6c0-.4-2.5-17.6-2.5-17.6h-11.2l-2.5,16.5-11.9.7,12.3-82.2h14.8v-.4.4ZM87.8,162.2c-2.1,0-1.4,0-1.8,1.4-1.1,8.1-1.4,16.2-3.2,23.9,0,1.8,7.4,1.8,7.7,0l-3.2-25.3h.4Z"/>
  <path class="st0" d="M49.9,185.4v33h-12.3v-82.6h16.9c.7,0,4.9,1.8,6,2.5,17.9,9.1,13.7,49.2-10.5,47.4h0v-.4ZM49.9,173.1c5.3-.7,7.7-2.5,8.4-7.7.7-7.4,1.1-16.9-8.4-16.9v24.9-.4Z"/>
  <path class="st0" d="M331.3,231.8v48.1c-8.1,3.9-12.6,9.1-22.5,5.3-2.5-1.1-7.4-5.6-7.4-8.1v-45h29.9v-.4Z"/>
  <path class="st0" d="M101.9,231.8v45c0,2.5-4.9,7.4-7.4,8.1-9.8,3.5-14.1-1.4-22.5-5.3v-48.1h29.9v.4Z"/>
  <polygon class="st0" points="255 135.9 255 148.2 243.4 148.2 243.4 218.5 231.1 218.5 231.1 148.2 219.5 148.2 219.5 135.9 255 135.9"/>
  <rect class="st1" x="107.1" y="84.6" width="30.6" height="37.9"/>
  <rect class="st1" x="141.6" y="84.6" width="30.6" height="37.9"/>
  <rect class="st1" x="231.1" y="84.6" width="30.6" height="37.9"/>
  <rect class="st1" x="265.9" y="84.6" width="30.6" height="37.9"/>
  <rect class="st1" x="301.4" y="84.6" width="29.9" height="37.9"/>
  <rect class="st1" x="336.2" y="84.6" width="29.9" height="37.9"/>
  <rect class="st1" x="72.3" y="84.6" width="29.9" height="37.9"/>
  <rect class="st1" x="37.6" y="84.6" width="29.9" height="37.9"/>
  <path class="st0" d="M366,231.8v32c-7,5.3-18.6,10.9-26.3,3.5-7.7-7.4-3.5-6-3.5-6.7v-28.5h29.9v-.4Z"/>
  <path class="st0" d="M67.1,231.8v28.5c0,.7-2.8,6-3.5,6.7-7.4,7.4-19.3,2.1-26.3-3.5v-32h29.9v.4Z"/>
</svg>