<?xml version="1.0" encoding="UTF-8"?>
<svg id="Layer_1" xmlns="http://www.w3.org/2000/svg" version="1.1" viewBox="0 0 170.1 170.1">
  <!-- Generator: Adobe Illustrator 29.8.1, SVG Export Plug-In . SVG Version: 2.1.1 Build 2)  -->
  <defs>
    <style>
      .st0 {
        fill-rule: evenodd;
      }

      .st0, .st1 {
        fill: #fff;
      }
    </style>
  </defs>
  <path class="st0" d="M79.6,51.9c-.2-1.7-1.5-3.5-2.8-4.5-1.7-1.3-5.2-2-4.9-4.6h1.2c-4.4-2-9.8-5.1-8.3-10.9,1.1-.4,2.1-.4,2.8-1.5-1.1,0-3.8,1.2-2.9-1,1.4-3.6,5.1,0,7.2,1,1,.5,3.1,1.7,4.2,1.8.9,0,1.8-.7,2.7-1,4.6-1.4,8.2-.3,11.7,2.8,6.3,5.4,2.3,9.3-.6,15-1.4,2.7-2.6,5.4-4,8-.2,0-1.9-2.9-2-3.4-.6-3.7.7-8.6.2-12.5.2-1.1,2.9-1,3.5-2-.8.2-4,.6-4.2,1.3v13.1s2.4,4.4,2.4,4.4l8.1-14.8v19.8h-14.4c-.3-3.4.4-7.6,0-11h0ZM82,36.9c.3-1.2-.6-3.5-2-2.4-1.6,1.2,1.5,1.5,1.6,1.5.3.2,0,.9.4.8Z"/>
  <path class="st0" d="M94,116.6c-3.1,2.1-6.6,3.5-5.3,7.9.9,3.4,6,3.3,6.6-.2.2-1.1-.1-2.5-1.3-2.8,1.5,2.9-2.9,4-3.3,1.5-.5-3.5,5.4-3.6,6.1.3,1.1,6.2-7.2,7.3-10,2.9-1.9,3.4-7.7,3.7-9.5,0-2.2-4.5,3.4-7.8,5.4-4.9,2.3,3.5-4.8,4.3-2.8.1-.9,0-1.3,1-1.4,1.8-.5,4.6,6.2,5.3,6.8.5.5-3.8-2.5-5.3-5.4-6.7v-23.1h13.8l.4.4v22.4h0Z"/>
  <rect class="st1" x="40.1" y="138.6" width="93.5" height="3.1"/>
  <path class="st0" d="M103.9,93.9v22.3c-2,1.4-4.5,2.9-6.9,1.5-.9-.5-1.8-2.2-1.8-3.1v-20.3l.4-.4s8.4,0,8.4,0Z"/>
  <path class="st0" d="M69.7,93.9h8.4l.4.4v20.3c0,1-.9,2.6-1.8,3.1-2.4,1.4-4.9,0-6.9-1.5v-22.3Z"/>
  <path class="st0" d="M103,66.6h4.8c1.3,0,3.2,1.2,3.9,2.3,1.4,2.3,1.2,11.6,1,14.6-.3,4.8-1.7,6.4-6.5,6.7-.9,0-2.5.2-3.2-.4,0,0,0-23.2,0-23.2ZM106.5,70.1v16.1c1,.6,2-.1,2.3-1.2.6-2.5.5-8.1.3-10.8-.1-1.8-.1-4.5-2.6-4.1Z"/>
  <path class="st0" d="M65.6,66.6c5.2.7,5.5,9.1,2.5,12.3l2.1,11.2-3.4-.2-1.8-9.6h-.9v9.9h-3.5v-23.5c1.6.2,3.5-.2,5.1,0h0ZM64.1,76.9c3.4.1,3.5-7,0-6.8v6.8Z"/>
  <path class="st0" d="M81.1,90.1h-3.5l-1.7-9.5-.9-.4v9.9h-3.5v-23.5h4.8c0,0,1.4.4,1.6.5,3.9,1.8,3.7,8.9,1.1,11.8l2.1,11.2h0ZM74.9,76.9c3.3.1,3.3-7.1,0-6.8v6.8Z"/>
  <path class="st0" d="M85.5,66.4c3-.5,5.4,1,5.7,4.1.6,5-.4,11.1,0,16.2-1.5,5.3-8.5,4.9-9.1-.9-.3-3.3-.4-12.1,0-15.3.2-1.8,1.6-3.8,3.5-4.1h0ZM86.2,69.9c-.5.2-.6.8-.6,1.3-.3,3-.3,11.2,0,14.1.2,1.8,1.9,2.3,2.1.2.5-4.5-.4-10,0-14.6,0-.8-.8-1.3-1.5-1Z"/>
  <path class="st0" d="M117.3,66.4c3-.5,5.4,1,5.7,4.1.5,5-.4,11.1,0,16.2-1.5,5.3-8.5,4.9-9.1-.9-.3-3.3-.4-12,0-15.2.2-1.8,1.5-3.8,3.4-4.1h0ZM118,69.9c-.5.2-.6.8-.6,1.3-.3,3-.3,11.2,0,14.1.2,1.8,1.9,2.3,2.1.2.5-4.5-.4-10,0-14.6,0-.8-.8-1.3-1.5-1Z"/>
  <path class="st0" d="M113.8,93.9v17.8c-1.9,1.5-4.5,2.9-6.9,1.5-1-.6-1.8-2.3-1.8-3.4v-15.5l.4-.4s8.4,0,8.4,0Z"/>
  <path class="st0" d="M59.9,93.9h8.4l.4.4v15.5c0,1-.9,2.8-1.8,3.4-2.4,1.4-5,0-6.9-1.5,0,0,0-17.8,0-17.8Z"/>
  <path class="st0" d="M133.6,75.1h-3.5v-4.4c0-.8-1.9-1.6-2.1.5-.5,4.7.4,10.1,0,14.8,0,.5.3,1,.8,1.1.5.2,1.3-.4,1.3-.8v-4.8h-1.4v-3.1h5v11.8h-2.1s-.4-.9-.4-.9c-2.9,2.4-6.4.8-6.7-2.9s-.4-12,0-15.8c.5-4.3,5.9-5.7,8.2-2.4.2.3.9,1.9.9,2.1v4.8h0Z"/>
  <path class="st0" d="M56.3,66.6l3.6,23.5h-3.3c0-.1-.7-5-.7-5h-3.2l-.7,4.7-3.4.2,3.5-23.4h4.2c0-.1,0-.1,0-.1ZM54.4,74.1c-.6,0-.4,0-.5.4-.3,2.3-.4,4.6-.9,6.8,0,.5,2.1.5,2.2,0,0,0-.9-7.2-.9-7.2Z"/>
  <path class="st0" d="M43.6,80.7v9.4h-3.5v-23.5h4.8c.2,0,1.4.5,1.7.7,5.1,2.6,3.9,14-3,13.5h0ZM43.6,77.2c1.5-.2,2.2-.7,2.4-2.2.2-2.1.3-4.8-2.4-4.8v7.1Z"/>
  <path class="st0" d="M123.7,93.9v13.7c-2.3,1.1-3.6,2.6-6.4,1.5-.7-.3-2.1-1.6-2.1-2.3v-12.8s8.5,0,8.5,0Z"/>
  <path class="st0" d="M58.4,93.9v12.8c0,.7-1.4,2.1-2.1,2.3-2.8,1-4-.4-6.4-1.5v-13.7s8.5,0,8.5,0Z"/>
  <polygon class="st0" points="102 66.6 102 70.1 98.7 70.1 98.7 90.1 95.2 90.1 95.2 70.1 91.9 70.1 91.9 66.6 102 66.6"/>
  <rect class="st1" x="59.9" y="52" width="8.7" height="10.8"/>
  <rect class="st1" x="69.7" y="52" width="8.7" height="10.8"/>
  <rect class="st1" x="95.2" y="52" width="8.7" height="10.8"/>
  <rect class="st1" x="105.1" y="52" width="8.7" height="10.8"/>
  <rect class="st1" x="115.2" y="52" width="8.5" height="10.8"/>
  <rect class="st1" x="125.1" y="52" width="8.5" height="10.8"/>
  <rect class="st1" x="50" y="52" width="8.5" height="10.8"/>
  <rect class="st1" x="40.1" y="52" width="8.5" height="10.8"/>
  <path class="st0" d="M133.6,93.9v9.1c-2,1.5-5.3,3.1-7.5,1s-1-1.7-1-1.9v-8.1h8.5Z"/>
  <path class="st0" d="M48.5,93.9v8.1c0,.2-.8,1.7-1,1.9-2.1,2.1-5.5.6-7.5-1v-9.1h8.5Z"/>
</svg>