<?xml version="1.0" encoding="UTF-8"?>
<svg id="Layer_1" xmlns="http://www.w3.org/2000/svg" version="1.1" viewBox="0 0 600 240">
  <!-- Generator: Adobe Illustrator 29.8.1, SVG Export Plug-In . SVG Version: 2.1.1 Build 2)  -->
  <defs>
    <style>
      .st0 {
        fill: #fff;
        fill-rule: evenodd;
      }
    </style>
  </defs>
  <g>
    <path class="st0" d="M244.8,51.3c1.9-2.7,4.7-4.7,6.7-7.3,16.8-21.9-8.8-34.5-25.2-19.3-11-10.5-38.8-1.4-28,15.3,4.4,6.7,21,12.6,28.6,12.1,4.5-.3,12-7.3,13.4-11.5,4.3-12.1-7.7-16.7-13.4-5.8h-.7c-2.7-4.4-8-7.1-12.5-3.5-3.7,10.5,4.9,11.5,11.6,15,1,.5,2.4,1.3.2,1.3-7.8-.8-23.2-5.5-20.4-15.9,2.3-8.6,16.4-7.6,21.2-1.5,14.5-14.5,30.6-1.7,16.9,15.4-3.2,3.9-11.2,10-16.2,10.3-11.3.7-34.6-8.6-37.2-20.9-3.6-17.6,16-22.1,29.5-18.2,1.9.5,4.8,2.8,6.3,2.8,1.3,0,9.7-6.1,14.4-6.7,31.3-4.2,29.2,30.8,4.8,38.5h0Z"/>
    <g>
      <path class="st0" d="M128.1,216.5c-13,9.3-26.1,15.4-41.1,20.5-10.6,3.6-13.5,2.5-24,3.2-6.4.5-21.9,4.9-26.5,0-1.1-1.2-1.4-3.5-2.7-4.9-.9-1-2.9-1.6-3.4-2.6-1.4-2.7.7-6.2,3.4-7.2,20-5.7,40.3-10.2,58.3-21.1,4.2-2.5,8.5-7,12.1-9,3.6-2,5.3-2.7,9.2-5.2,8.5-5.5,31.5-18.8,31.4-29.8,0-2.3-8.8-6.1-11-6.8-22.3-7.2-40.5-3.6-60.5-19.2-3.7-2.9-6.3-2.6-8.8-8.3-3.8-8.7-3.3-25.2.9-33.7,5.9-11.9,14.9-21.9,23.2-32,11.6-14.2,51-26.9,68.8-26.5,4.7.1,18.8,1.7,21.7,5.7,1.4,2,.8,6.7-1.2,8-1.4,1-11,2.7-14.2,3.9-3.7,1.4-7.2,4.2-10.4,5.5-11.8,4.6-25.5,6-37.3,12.6-10.4,5.9-27.3,23.9-26.2,36.5.8,9,9.3,10.2,16.6,12.1,18.8,4.8,38,6.2,55.1,16.7,15.3,9.3,18,24.5,10,40.1-10.2,19.9-26.5,29.3-43.5,41.5h0Z"/>
      <path class="st0" d="M245.3,75.7c3.2,3.8,13.9,25.7,15.2,30.5,4.5,16.4,4.5,45-2.5,60.6-.2.5-6.4,8.7-7.1,9.5-8.2,9.5-21.9,16.7-34.7,14.3-29.7-5.8-40.7-41.3-35.3-67.6,1.9-9.5,5.5-21,9.6-29.7,1.4-3.1,7.4-15.3,9-17.3.8-1,3.5-1.7,5-2.8,2-1.6,3-3.8,4.5-5.3,8.2-7.5,15.6-5.3,25-1.5,3.1,1.2,9.1,6.7,11.4,9.3h0ZM211.8,94.6c-2.6,3-6.2,15.1-7.4,19.4-4.2,15-5.1,26.4-1.7,41.8,2.6,11.9,15.2,14.5,25.1,9.5,1.2-.6,9.3-7.3,9.9-8.3.7-1.2,2.9-9.2,3.3-11.1.8-4.1,3.3-18.1,3.2-21.7-.2-3-4.5-17.4-5.8-20.7s-7.6-12.7-11.1-13.1c-4.7-.6-12.1.2-15.3,4Z"/>
    </g>
  </g>
  <g>
    <g>
      <path class="st0" d="M464.6,17.5c10.5,9.2,17.8,24.2,14.3,38.3-1.2,4.8-4.9,5.8-7.9,8.8-6.7,6.6-13.5,13-20,19.7l-16.4,9.7c14,8.4,28.3,16.2,41.5,25.8,3.5,2.5,20,14.8,21.5,17,3.6,5.1,1.6,5,1.6,9.4s3.4,8-2.5,9.3c-5.3,1.2-15.3-7.1-20.1-9.8-18.2-10.2-35.3-23.9-53.9-32.3-1.3-.6-6.7-3.3-7.1-1.1-.3,5.2-.7,10.6-1.6,15.7-1.3,8.2-3.7,14.7-5.7,22.2-1.4,5.1-4,22.1-6.2,24.8-4.8,5.7-12.6,1.3-15.3-4.4-3.7-7.9-2.2-28.6-1.4-37.9,2.4-26.6,7.4-54.8,13.8-80.6,1.2-4.9,2.4-20.1,6.8-22,5.6-2.4,8.3,3.2,11.4,2.3,11-9,33.1-27,47.2-14.8h0ZM454.8,36.4c-9.4-2.6-18.5,5.2-24,12.3-3.7,4.7-11.3,20.7-12,26.5-.3,2.3,0,4.8,0,7.1,1.9.3,3.1-.2,4.8-.9,2.3-1,18-12.4,19.7-14.3,2.8-3.1,10.2-15.7,11.3-19.7,1-3.6,2.1-7.6.2-11.1Z"/>
      <path class="st0" d="M558.4,116.1c-1,1.3-4.2,2-4.8,2.7-1.1,1-1.4,4-3.6,5.8-3.6,3-12.5,7.2-17,8.7-12.9,4.2-20.7,3.2-32.5-3.8-30.7-18.5-29.6-57.5-15.5-86.4,2.4-4.9,18.5-29.8,22-31.6,4-2.2,6.3-3.6,10.1-5.8,4.6-2.7,10.7-3.6,15.8-2.3,10.5,2.5,18.5,8.6,23.7,17.8,4.5,7.9,10.3,23.4,11.8,32.1,2.9,16.8,1.8,30.3-3.2,46.6-.8,2.5-5.7,14.7-6.8,16.3h0ZM515.7,34.1c-6.7,11.2-12.7,23.7-16.3,36.3-1.6,5.6-1.2,19-.5,25.1,1.6,13.5,14.7,17.1,26.4,13.7,1.1-.3,10.8-5.5,11.3-6,1-1,3.7-6.8,4.3-8.5,1.7-4.4,7.5-21.1,7.7-24.8.1-3.5-2.4-16.9-3.5-20.6s-7.3-15.8-10.8-17.2c-6.1-2.4-13.1-.5-18.7,2.1h0Z"/>
    </g>
    <path class="st0" d="M338.6,70.9c4.8-.5,10-1.9,14.8-2.3,3.2-.3,18.2-1,19.7,1.5,1.3,3.7.2,5.7-2.7,7.9-4.2,3.1-17.7,7.3-23.4,9.1-4.4,1.4-9.1,2.2-13.5,3.5l-3,18.4c1.4,3-.5,9.6,1.7,11.7,2.4,2.4,15.9-1.3,19.6-2.3,4.8-1.3,27.6-10.7,29.4-10.4,6,.9,3,7.7.5,10.8-11.5,14.1-41.7,21.7-59.2,20-3.3-.3-6.5-.7-8.8-3.3-10.7-12.3-7.8-37.5-5-52.7,2-10.8,5-21.5,8.1-32.1.2-3.5-6.7-5.1-6.8-9.3,4.3-.4,3-5.3,4.5-7.2,1.3-1.6,8.6-5.1,11-6.5,3.3-1.9,1.7-2,3.8-3.8,4.7-3.9,13.5-2.3,18.8-3.1,10.7-1.5,20.9-3.3,31.8-3.7,4.1-.2,17-.9,19.3,1.9,3.9,4.8-2,8.5-6,10.7-6.4,3.4-14.1,4.5-20.8,7.1-2.3.9-4.8,3-7.4,4-8.1,3.2-16.6,2.3-20.8,11.7-1,2.2-6.2,17.7-5.5,18.3h0Z"/>
    <path class="st0" d="M293.3,151.7c11.7,4.3,23.3-2.5,34.7-4.8,3.7-.7,6.8-.7,10.1-1.2,6.3-1,18.6-6.9,16.2,4.8-.8,3.7-3.3,5-6.4,6.5-11.1,5.4-46.5,17.1-58.1,16.8-4.7-.1-10.3-1-13.2-5-11.1-16.2-7.7-49-6.2-67.9,1.1-14.6,3.3-29.3,4.5-43.8.8-9.8-1.9-25.2,7.2-31.4,3.6-.4,10.7,6.7,11.4,9.9.5,1.9-.6,3.6-.5,5.6.3,5.3,2.8,12.4,3,18.2.5,11.5-1.9,24.7-2.3,36.3-.4,12.5,1,25.5.8,37.8-.1,5.8-2.9,12.3-1.4,18.4h0Z"/>
  </g>
</svg>