<?xml version="1.0" encoding="UTF-8"?>
<svg xmlns="http://www.w3.org/2000/svg" viewBox="0 0 170.08 170.08" fill="#ffffff" fill-rule="evenodd"><g><path d="M70.69,69.11c.49-.71,1.21-1.21,1.74-1.9,4.37-5.69-2.29-8.96-6.55-5.03-2.87-2.72-10.1-.37-7.27,3.97,1.14,1.75,5.46,3.27,7.45,3.15,1.16-.07,3.11-1.91,3.49-3,1.11-3.14-2-4.34-3.49-1.52h-.19c-.71-1.14-2.09-1.85-3.26-.9-.96,2.73,1.28,3,3.02,3.9.25.13.63.33.04.35-2.04-.22-6.03-1.44-5.31-4.14.59-2.24,4.26-1.98,5.51-.39,3.76-3.76,7.95-.43,4.39,4-.82,1.02-2.91,2.6-4.22,2.68-2.94.19-9-2.23-9.67-5.44-.94-4.58,4.17-5.74,7.67-4.72.49.14,1.25.74,1.63.72.33-.01,2.53-1.58,3.75-1.74,8.15-1.08,7.59,8.01,1.26,10.01Z" /><g><path d="M40.33,112.08c-3.39,2.43-6.79,4.01-10.69,5.34-2.76.94-3.51.64-6.24.83-1.67.12-5.69,1.28-6.88,0-.28-.31-.37-.9-.69-1.27-.23-.27-.75-.41-.89-.68-.36-.71.17-1.62.89-1.87,5.2-1.48,10.48-2.66,15.15-5.49,1.08-.66,2.21-1.83,3.15-2.35s1.39-.7,2.39-1.34c2.22-1.43,8.18-4.88,8.17-7.76,0-.61-2.28-1.58-2.86-1.77-5.81-1.87-10.53-.93-15.72-4.98-.97-.76-1.64-.67-2.3-2.17-.98-2.25-.86-6.55.24-8.76,1.54-3.09,3.87-5.7,6.02-8.33,3.02-3.69,13.27-6.99,17.89-6.88,1.22.03,4.89.44,5.63,1.47.37.52.22,1.73-.3,2.09-.36.26-2.87.69-3.7,1.02-.95.37-1.87,1.1-2.7,1.43-3.07,1.2-6.62,1.55-9.7,3.28-2.71,1.53-7.09,6.22-6.82,9.5.2,2.35,2.41,2.66,4.32,3.15,4.88,1.25,9.88,1.62,14.34,4.33,3.99,2.43,4.69,6.37,2.61,10.44-2.66,5.18-6.9,7.62-11.32,10.8Z" /><path d="M70.82,75.47c.84.98,3.61,6.68,3.96,7.94,1.18,4.27,1.18,11.7-.66,15.77-.06.14-1.67,2.26-1.85,2.47-2.12,2.47-5.7,4.35-9.02,3.71-7.72-1.51-10.58-10.74-9.18-17.57.5-2.46,1.44-5.45,2.49-7.73.37-.8,1.92-3.99,2.33-4.5.21-.27.9-.43,1.29-.73.53-.41.77-1,1.18-1.37,2.13-1.94,4.06-1.38,6.5-.4.81.32,2.37,1.74,2.97,2.43ZM62.1,80.38c-.67.79-1.62,3.92-1.93,5.05-1.08,3.9-1.32,6.86-.45,10.87.67,3.09,3.95,3.77,6.52,2.47.31-.16,2.42-1.9,2.57-2.15.19-.32.75-2.38.85-2.88.22-1.06.87-4.7.82-5.63-.04-.79-1.16-4.53-1.52-5.37s-1.98-3.29-2.88-3.41c-1.21-.16-3.15.06-3.98,1.05Z" /></g></g><g><g><path d="M127.84,60.33c2.74,2.38,4.64,6.29,3.71,9.96-.32,1.26-1.28,1.51-2.05,2.28-1.73,1.72-3.5,3.39-5.19,5.13l-4.27,2.52c3.63,2.19,7.35,4.22,10.8,6.7.92.66,5.2,3.85,5.6,4.42.93,1.32.41,1.29.41,2.44,0,.91.89,2.09-.64,2.42-1.37.3-3.98-1.85-5.23-2.55-4.72-2.66-9.18-6.21-14.02-8.39-.33-.15-1.73-.86-1.85-.29-.07,1.35-.19,2.75-.41,4.07-.35,2.12-.96,3.81-1.49,5.78-.36,1.32-1.03,5.74-1.62,6.44-1.24,1.47-3.27.34-3.97-1.15-.97-2.06-.57-7.44-.36-9.86.62-6.91,1.93-14.26,3.6-20.97.32-1.27.63-5.22,1.76-5.71,1.46-.63,2.15.83,2.96.61,2.87-2.33,8.6-7.02,12.27-3.84ZM125.3,65.23c-2.45-.67-4.82,1.36-6.24,3.2-.95,1.23-2.93,5.38-3.13,6.89-.08.61.02,1.24-.02,1.85.49.07.81-.04,1.25-.23.59-.26,4.68-3.22,5.13-3.71.72-.8,2.65-4.08,2.95-5.11.27-.93.55-1.97.06-2.89Z" /><path d="M152.23,85.96c-.25.33-1.08.53-1.26.7-.28.26-.36,1.03-.94,1.52-.94.79-3.24,1.88-4.43,2.26-3.36,1.08-5.39.84-8.44-1-7.99-4.81-7.7-14.95-4.03-22.47.62-1.27,4.82-7.74,5.73-8.23,1.04-.56,1.65-.93,2.62-1.51,1.2-.71,2.78-.93,4.12-.6,2.72.66,4.8,2.23,6.17,4.64,1.17,2.05,2.67,6.09,3.06,8.34.76,4.38.48,7.88-.83,12.12-.2.65-1.47,3.83-1.77,4.23ZM141.13,64.64c-1.75,2.91-3.31,6.15-4.23,9.43-.41,1.45-.31,4.95-.12,6.52.42,3.52,3.83,4.45,6.87,3.57.28-.08,2.8-1.42,2.95-1.57.27-.27.95-1.77,1.12-2.22.44-1.14,1.96-5.48,2-6.46.03-.9-.62-4.4-.9-5.35s-1.9-4.1-2.81-4.46c-1.58-.63-3.4-.13-4.87.54Z" /></g><path d="M95.07,74.22c1.25-.12,2.59-.49,3.84-.59.83-.07,4.73-.25,5.11.39.34.96.05,1.49-.7,2.05-1.08.81-4.61,1.9-6.08,2.37-1.15.37-2.36.56-3.51.91l-.78,4.79c.36.79-.12,2.49.45,3.05.63.63,4.14-.35,5.1-.61,1.25-.33,7.18-2.77,7.64-2.7,1.55.24.79,2,.14,2.81-2.99,3.67-10.84,5.64-15.4,5.19-.87-.09-1.7-.18-2.29-.86-2.79-3.19-2.03-9.75-1.31-13.7.51-2.81,1.3-5.6,2.1-8.34.04-.92-1.73-1.32-1.77-2.43,1.11-.11.77-1.38,1.18-1.87.34-.41,2.24-1.33,2.85-1.68.85-.5.43-.53.98-.98,1.21-1.01,3.51-.61,4.9-.8,2.79-.38,5.44-.87,8.27-.97,1.07-.04,4.43-.24,5.03.49,1.01,1.25-.52,2.21-1.57,2.77-1.66.89-3.67,1.18-5.42,1.85-.61.23-1.26.78-1.92,1.03-2.11.82-4.32.6-5.4,3.05-.25.56-1.6,4.59-1.42,4.77Z" /><path d="M83.3,95.23c3.03,1.13,6.06-.65,9.02-1.25.95-.19,1.77-.18,2.63-.32,1.65-.27,4.83-1.8,4.21,1.25-.2.96-.86,1.3-1.66,1.69-2.88,1.4-12.1,4.44-15.1,4.36-1.23-.03-2.69-.26-3.42-1.31-2.89-4.2-1.99-12.73-1.6-17.66.29-3.79.86-7.61,1.18-11.4.21-2.54-.5-6.56,1.87-8.17.94-.1,2.77,1.73,2.97,2.57.12.5-.15.93-.12,1.46.07,1.37.73,3.22.79,4.73.12,3-.5,6.42-.6,9.43-.11,3.26.27,6.62.21,9.83-.03,1.52-.75,3.2-.37,4.79Z" /></g></svg>
