<?xml version="1.0" encoding="UTF-8"?>
<svg xmlns="http://www.w3.org/2000/svg" viewBox="0 0 170.08 170.08" fill="#ffffff" fill-rule="evenodd"><path d="M54.47,34.36c9.45-.69,19.31.95,27.23,6.3,7.99-5.15,17.41-6.92,26.86-6.37,16.82.98,30.4,15,26.32,32.32-4.97,21.08-34.42,35.32-53.18,41.54-18.44-6.38-46-19.37-52.42-39.42-5.7-17.79,7.55-33.08,25.19-34.37ZM81.19,67.97c1.18.69,2.73-2.13,3.39-2.84,6.59-7.08,15.25-4.75,14.31,5.66-.55,6.11-5.63,11.27-10.72,14.13-5.57,3.12-7.49,2.9-13.65,1.59-11.85-2.52-34.46-12.17-28.11-28.02,4.8-12,23.1-10.96,32.32-5.02.75.49,2.47,2.18,3.17,2.14.54-.03,3.71-2.32,4.56-2.78,9.06-4.9,23.12-5.39,29.48,4.04,6.48,9.62-1.71,20.42-8.83,26.81-.89.8-5.52,4.15-5.68,4.75-.23.85.7.72,1.3.63,3.62-.54,11.11-5.34,13.93-7.82,15.21-13.4,12.85-34.25-8.62-37.98-8.49-1.48-15.44.21-22.83,4.33-.71.4-2.97,2.06-3.49,2.04-3.34-2.22-6.71-4.02-10.56-5.22-12.69-3.93-32.8-1.43-33.93,15.11-1.23,18.02,22.51,29.22,37.25,31.93,4.8.88,7.03,1.36,11.72-.28,8.86-3.1,18.48-10.65,20.98-20.08,2.64-9.97-4.2-17.89-14.49-15.37-4.19,1.03-7.64,3.67-10.95,6.29-.37,0-1.87-1.86-2.36-2.29-5.56-4.81-15.16-7.01-20.98-1.45-7.22,6.9-.65,15.57,6.11,19.42,4.72,2.7,10.86,4.72,16.28,4.95l.38-.52c0-.69-3.42-1.72-4.15-2.06-5.25-2.47-12.54-6.75-12.06-13.47.25-3.58,3.53-5.86,6.99-5.65,3.28.21,6.08,2.38,7.97,4.9.29.38,1.17,2.09,1.28,2.15Z" /><g><path d="M67.5,116.38c5.57.75,6.84,8.64,1.67,10.98l5.09,5.96-2.95,2.57-6.36-7.31v6.88h-4.22v-19.08c2.12.2,4.71-.28,6.77,0ZM64.94,124.59c4.48.7,4.51-4.87,0-4.22v4.22Z" /><polygon points="87.8 116.38 87.8 120.38 81.37 120.38 81.37 123.93 87.58 123.93 87.58 127.92 81.37 127.92 81.37 131.25 87.8 131.25 87.8 135.46 77.15 135.46 77.15 116.38 87.8 116.38" /><polygon points="103.34 116.38 103.34 120.38 96.9 120.38 96.9 123.93 102.89 123.93 102.89 127.92 96.9 127.92 96.9 131.25 103.01 131.25 103.34 131.58 103.34 135.13 103.01 135.46 92.69 135.46 92.69 116.38 103.34 116.38" /><path d="M35.6,116.22c2.99-.44,5.31.67,6.94,3.16l-2.78,2.99c-.81-1.32-3.75-3.23-4.46-.89-.65,2.13,3.53,2.6,4.95,3.51,2.33,1.5,2.96,4.08,2.13,6.65-1.68,5.2-8.78,5.2-11.35.79l2.74-2.95c.8,1.48,4.24,3.13,4.73.72.45-2.2-2.87-2.35-4.33-3.13-5.01-2.66-3.58-10.11,1.43-10.85Z" /><path d="M125.7,116.22c2.99-.45,5.31.67,6.94,3.16l-2.78,2.99c-.83-1.32-3.71-3.23-4.45-.89-.69,2.15,3.47,2.57,4.94,3.52,2.38,1.54,3.03,4.38,2.01,6.98-1.91,4.89-8.76,4.76-11.24.46l2.74-2.95c.8,1.48,4.24,3.13,4.73.72.45-2.21-2.87-2.35-4.33-3.13-5.06-2.69-3.56-10.11,1.43-10.85Z" /><polygon points="58.29 116.38 58.29 120.38 53.18 120.38 53.18 135.13 52.85 135.46 48.96 135.46 48.96 120.71 48.63 120.38 43.64 120.38 43.64 116.38 58.29 116.38" /><polygon points="119.98 116.38 119.98 120.38 114.99 120.38 114.66 120.71 114.66 135.46 110.77 135.46 110.44 135.13 110.44 120.38 105.34 120.38 105.34 116.38 119.98 116.38" /><path d="M141.32,119.01c0,1.81-1.47,3.29-3.29,3.29s-3.29-1.47-3.29-3.29,1.47-3.29,3.29-3.29,3.29,1.47,3.29,3.29ZM140.37,118.99c0-1.29-1.05-2.34-2.34-2.34s-2.34,1.05-2.34,2.34,1.05,2.34,2.34,2.34,2.34-1.05,2.34-2.34Z" /><path d="M136.85,117.27c1.06,0,2.61-.33,2.44,1.2-.04.35-.4.75-.39.91.03.37,1.24.63.05,1.44l-1-.88v.89s-1.11,0-1.11,0v-3.55Z" /></g></svg>
