<?xml version="1.0" encoding="UTF-8"?>
<svg id="Layer_1" xmlns="http://www.w3.org/2000/svg" version="1.1" viewBox="0 0 400 400">
  <!-- Generator: Adobe Illustrator 29.8.1, SVG Export Plug-In . SVG Version: 2.1.1 Build 2)  -->
  <defs>
    <style>
      .st0 {
        fill: #fff;
        fill-rule: evenodd;
      }
    </style>
  </defs>
  <path class="st0" d="M93.2,21.2c33.3-2.4,68.1,3.4,96.1,22.2,28.2-18.2,61.4-24.4,94.8-22.5,59.3,3.5,107.2,52.9,92.9,114-17.5,74.4-121.4,124.6-187.6,146.6C124.2,259,27,213.2,4.3,142.5-15.8,79.7,31,25.7,93.2,21.2ZM187.5,139.8c4.2,2.4,9.6-7.5,12-10,23.2-25,53.8-16.8,50.5,20-1.9,21.6-19.9,39.8-37.8,49.8-19.7,11-26.4,10.2-48.2,5.6-41.8-8.9-121.6-42.9-99.2-98.9,16.9-42.3,81.5-38.7,114-17.7,2.6,1.7,8.7,7.7,11.2,7.5,1.9-.1,13.1-8.2,16.1-9.8,32-17.3,81.6-19,104,14.3,22.9,33.9-6,72-31.2,94.6-3.1,2.8-19.5,14.6-20,16.8-.8,3,2.5,2.5,4.6,2.2,12.8-1.9,39.2-18.8,49.1-27.6,53.7-47.3,45.3-120.8-30.4-134-30-5.2-54.5.7-80.5,15.3-2.5,1.4-10.5,7.3-12.3,7.2-11.8-7.8-23.7-14.2-37.3-18.4-44.8-13.9-115.7-5-119.7,53.3-4.3,63.6,79.4,103.1,131.4,112.6,16.9,3.1,24.8,4.8,41.3-1,31.3-10.9,65.2-37.6,74-70.8,9.3-35.2-14.8-63.1-51.1-54.2-14.8,3.6-27,12.9-38.6,22.2-1.3,0-6.6-6.6-8.3-8.1-19.6-17-53.5-24.7-74-5.1-25.5,24.3-2.3,54.9,21.6,68.5,16.7,9.5,38.3,16.7,57.4,17.5l1.3-1.8c0-2.4-12.1-6.1-14.6-7.3-18.5-8.7-44.2-23.8-42.5-47.5.9-12.6,12.5-20.7,24.7-19.9,11.6.7,21.4,8.4,28.1,17.3,1,1.3,4.1,7.4,4.5,7.6h0Z"/>
  <g>
    <path class="st0" d="M139.2,310.6c19.7,2.6,24.1,30.5,5.9,38.7l18,21-10.4,9.1-22.4-25.8v24.3h-14.9v-67.3c7.5.7,16.6-1,23.9,0h0ZM130.1,339.5c15.8,2.5,15.9-17.2,0-14.9v14.9Z"/>
    <polygon class="st0" points="210.8 310.6 210.8 324.7 188.1 324.7 188.1 337.2 210 337.2 210 351.3 188.1 351.3 188.1 363 210.8 363 210.8 377.9 173.2 377.9 173.2 310.6 210.8 310.6"/>
    <polygon class="st0" points="265.6 310.6 265.6 324.7 242.9 324.7 242.9 337.2 264 337.2 264 351.3 242.9 351.3 242.9 363 264.4 363 265.6 364.2 265.6 376.7 264.4 377.9 228 377.9 228 310.6 265.6 310.6"/>
    <path class="st0" d="M26.6,310c10.5-1.6,18.7,2.4,24.5,11.1l-9.8,10.5c-2.9-4.7-13.2-11.4-15.7-3.1-2.3,7.5,12.5,9.2,17.5,12.4,8.2,5.3,10.4,14.4,7.5,23.5-5.9,18.3-31,18.3-40,2.8l9.7-10.4c2.8,5.2,15,11,16.7,2.5,1.6-7.8-10.1-8.3-15.3-11-17.7-9.4-12.6-35.7,5-38.3Z"/>
    <path class="st0" d="M344.5,310c10.5-1.6,18.7,2.4,24.5,11.1l-9.8,10.5c-2.9-4.7-13.1-11.4-15.7-3.1-2.4,7.6,12.2,9.1,17.4,12.4,8.4,5.4,10.7,15.5,7.1,24.6-6.7,17.3-30.9,16.8-39.7,1.6l9.7-10.4c2.8,5.2,15,11,16.7,2.5,1.6-7.8-10.1-8.3-15.3-11-17.9-9.5-12.6-35.7,5-38.3h0Z"/>
    <polygon class="st0" points="106.7 310.6 106.7 324.7 88.6 324.7 88.6 376.7 87.5 377.9 73.7 377.9 73.7 325.8 72.6 324.7 55 324.7 55 310.6 106.7 310.6"/>
    <polygon class="st0" points="324.3 310.6 324.3 324.7 306.7 324.7 305.5 325.8 305.5 377.9 291.8 377.9 290.6 376.7 290.6 324.7 272.7 324.7 272.7 310.6 324.3 310.6"/>
    <path class="st0" d="M399.6,319.8c0,6.4-5.2,11.6-11.6,11.6s-11.6-5.2-11.6-11.6,5.2-11.6,11.6-11.6,11.6,5.2,11.6,11.6ZM396.2,319.8c0-4.6-3.7-8.3-8.3-8.3s-8.3,3.7-8.3,8.3,3.7,8.3,8.3,8.3,8.3-3.7,8.3-8.3Z"/>
    <path class="st0" d="M383.8,313.7c3.7,0,9.2-1.2,8.6,4.2-.1,1.2-1.4,2.6-1.4,3.2.1,1.3,4.4,2.2.2,5.1l-3.5-3.1v3.1h-3.9v-12.5h0Z"/>
  </g>
</svg>