<?xml version="1.0" encoding="UTF-8"?>
<svg id="Layer_1" xmlns="http://www.w3.org/2000/svg" version="1.1" viewBox="0 0 170.1 170.1">
  <!-- Generator: Adobe Illustrator 29.8.1, SVG Export Plug-In . SVG Version: 2.1.1 Build 2)  -->
  <defs>
    <style>
      .st0 {
        fill: #fff;
        fill-rule: evenodd;
      }
    </style>
  </defs>
  <path class="st0" d="M75.5,76.1c2.2.2,4.2,1.2,3.8,3.8-.2,1.4-1.5,2.3-2.8,2.8,1.4,1.8,2,4.6,4.4,5.6.4,0,.7-.9.8-1.3.2-2,.2-7,0-9,0-.9-.3-1.2-.9-1.8h8l.6,1.9c-.3-.2-1.3-.9-1.6-.9h-3.5l-.4.4v4h4.5v1.4s-.8-.5-1-.5h-3.4v4.7c0,.6,3,.5,3.5.4,1.1-.1,1.9-.5,2.7-1.2l-.6,2.1h-11.4c-.3-.2-.6-.3-.8-.5-1-.8-2.5-5-3.3-5.1h-1v4.5c0,.3.5.8.7,1.1h-3.5c.1-.3.4-.4.6-.7.3-.6.3-8.8.1-9.9,0-.7-.4-1.1-.7-1.6,1.7.1,3.6-.2,5.4,0h.1ZM72.8,82c4.7,1,6.1-5.5.6-4.8-.3,0-.4,0-.6.3,0,0,0,4.5,0,4.5Z"/>
  <path class="st0" d="M51.1,76.1c0,.3-.3.5-.4.8-.1.7,1.4,6.5,1.7,7.6,0,.2-.1.5.3.4l2.8-8.2c.3-.6,1-.6,1.6-.6l3.3,8.6,1.7-7.2-.7-1.5h3l-1,1.5c-.5,1.2-2.4,10.5-2.8,10.9-.6.4-1.2-.4-1.5-.8-1.1-1.9-1.9-5.1-2.8-7.3-.1-.2-.3-1.1-.6-1-1.1,2.5-1.7,5.8-2.9,8.2s-.7,1.1-1.5,1c-.4,0-.2,0-.3-.3-1.2-3.1-1.5-7.6-2.8-10.7-.3-.7-.6-.9-1-1.5h4Z"/>
  <path class="st0" d="M46.6,76c-1.6-1.3-6.1-2.7-6.9-.1-.8,2.4,4.1,3.9,5.6,5,4.2,2.8,2.8,7.6-2.1,8.1-1.3.1-5.1-.2-5.7-1.6-.3-.6-.3-1.6-.6-2.3,1.4,1.1,3.3,2.6,5.2,2.6,2.7,0,4.3-2.8,1.9-4.8-2-1.7-6.6-2.5-6.8-5.9-.2-4.3,5.9-4.3,8.7-3.2l.6,2.3h.1Z"/>
  <path class="st0" d="M107.6,76.1s-.7.8-.7,1.1v4.2h6.5v-3.6c0-.5-.6-1.3-.9-1.6h3.8c-1.2,1.1-.6,3-.7,4.7,0,1.7-.6,5.3,0,6.8.1.3.5.4.5.8h-3.5c.3-.4.9-1.2.9-1.6v-4.1l-.3-.3h-6.3v4.9c0,.3.5.8.7,1.1h-3.5c0-.3.4-.5.5-.8.4-1.3.4-9.6,0-10.8-.1-.3-.3-.4-.4-.7h3.5Z"/>
  <path class="st0" d="M149.1,76.1c2.3,2.9,4.3,6.2,6.6,9.1.1.1,0,.3.4.2v-7.7c0-.5-.6-1.3-.9-1.6h2.8c0,.3-.7,1-.7,1.3v11.4h-1.4c-2.9-2.9-4.9-6.8-7.5-9.8v8c0,.4.6,1.2.9,1.5h-3c.3-.4.6-.6.7-1.1.2-1.3.2-4.5.2-6s.2-4-.9-5.2h2.8Z"/>
  <path class="st0" d="M170,88.2c-5.4,2-12-.2-10.9-7,.8-5.1,5.9-6.2,10.1-5.1v2.2c-6.2-5.7-11.3,4.8-5.8,8.5,1,.7,4.2,1.5,4.5-.2.1-.8,0-3.1-.2-3.9-.1-.3-.5-.4-.5-.8h2.8v6h0v.2Z"/>
  <path class="st0" d="M127.9,76.1c1,.2,2.7,1.2,2.9,2.4.7,4.2-3.2,4.6-6.4,4.5.2,1.8-.5,4,.7,5.5h-3.5c.3-.4.6-.6.7-1.2.3-1.7.3-8.3,0-10,0-.5-.4-.7-.7-1.1,1.9.2,4.4-.3,6.3,0h0ZM124.4,82c1,0,2.3.2,3.2-.4,1.3-.8,1.2-3.5-.1-4.3-.6-.3-3.1-.6-3.1.1v4.5h0Z"/>
  <path class="st0" d="M137.9,76.1c2.2.3,3.5,2.3,2.8,4.5-.7,2.4-4.3,2.4-6.3,2.4.2,1.8-.6,4.1.9,5.5h-3.8c.7-.7.8-1.7.9-2.7.2-2.8-.4-5.8-.2-8.6l-.7-1c1.9.2,4.4-.3,6.3,0h0ZM134.5,82h2.5s.8-.5,1-.6c1-.9.9-3.2-.3-4-.6-.3-3.2-.7-3.2,0v4.5h0Z"/>
  <path class="st0" d="M101.9,76.2l.4,1.9c-1.1-.7-2.3-1.3-3.8-1.2s-2.3,1-1.7,2.4c.6,1.6,5.9,2.5,6.4,5.3.7,4.3-4.2,4.9-7.2,3.9s-1.5-1.2-1.7-2.7c1.3.8,2.5,2.1,4.2,2.1s3.8-1.9,2-3.6c-1.6-1.5-5.5-2.2-5.9-5-.5-4.2,4.7-3.6,7.4-3h-.1Z"/>
  <path class="st0" d="M69,76.1c0,.5-.4.6-.6,1.1-.3,1-.3,8.4-.1,9.7,0,.7.3,1,.7,1.5h-3.5c0-.3.4-.4.5-.6.4-.8.3-8.6.2-10,0-.9-.4-.9-.7-1.6h3.5Z"/>
  <path class="st0" d="M120.7,76.1c-1.5,1.9-.8,4.9-.7,7.1,0,1.7-.5,4,.7,5.2h-3.8c.1-.3.4-.4.6-.7.6-1.3.4-8.7.1-10.4,0-.6-.5-.6-.5-1.1h3.5Z"/>
  <path class="st0" d="M145.4,76.1c-1.1,1-.6,2.3-.7,3.6-.1,2.1-.4,4.6-.2,6.7,0,.8.3,1.4.8,2h-3.8c.1-.3.4-.4.6-.8.7-1.5.2-5.5.1-7.3,0-1.2.3-2.8-.2-3.9-.2-.3-.4-.2-.5-.5h3.9Z"/>
  <path class="st0" d="M30.9,70.9v20.3H0v-20.3h30.9ZM13.4,71.3H.7l12.7,8.5v-8.5h.1ZM30.2,71.3h-12.5l-.3.3v8.2l12.7-8.5h.1ZM13.4,90.8v-8.5L.8,90.8h12.7ZM30.2,90.8l-12.7-8.5v8.2l.3.3h12.5-.1Z"/>
</svg>