<?xml version="1.0" encoding="UTF-8"?>
<svg id="Layer_1" xmlns="http://www.w3.org/2000/svg" version="1.1" viewBox="0 0 600 240">
  <!-- Generator: Adobe Illustrator 29.8.1, SVG Export Plug-In . SVG Version: 2.1.1 Build 2)  -->
  <defs>
    <style>
      .st0 {
        fill: #fff;
        fill-rule: evenodd;
      }
    </style>
  </defs>
  <path class="st0" d="M266.4,98.5c7.8.7,14.8,4.2,13.4,13.4-.7,4.9-5.3,8.1-9.9,9.9,4.9,6.4,7.1,16.2,15.5,19.8,1.4,0,2.5-3.2,2.8-4.6.7-7.1.7-24.7,0-31.8,0-3.2-1.1-4.2-3.2-6.4h28.2l2.1,6.7c-1.1-.7-4.6-3.2-5.6-3.2h-12.4l-1.4,1.4v14.1h15.9v4.9s-2.8-1.8-3.5-1.8h-12v16.6c0,2.1,10.6,1.8,12.4,1.4,3.9-.4,6.7-1.8,9.5-4.2l-2.1,7.4h-40.2c-1.1-.7-2.1-1.1-2.8-1.8-3.5-2.8-8.8-17.6-11.6-18h-3.5v15.9c0,1.1,1.8,2.8,2.5,3.9h-12.4c.4-1.1,1.4-1.4,2.1-2.5,1.1-2.1,1.1-31.1.4-34.9,0-2.5-1.4-3.9-2.5-5.6,6,.4,12.7-.7,19.1,0h.4l-1.1-.7ZM256.9,119.4c16.6,3.5,21.5-19.4,2.1-16.9-1.1,0-1.4,0-2.1,1.1v15.9Z"/>
  <path class="st0" d="M180.3,98.5c0,1.1-1.1,1.8-1.4,2.8-.4,2.5,4.9,22.9,6,26.8,0,.7-.4,1.8,1.1,1.4l9.9-28.9c1.1-2.1,3.5-2.1,5.6-2.1l11.6,30.4,6-25.4-2.5-5.3h10.6l-3.5,5.3c-1.8,4.2-8.5,37.1-9.9,38.5-2.1,1.4-4.2-1.4-5.3-2.8-3.9-6.7-6.7-18-9.9-25.8-.4-.7-1.1-3.9-2.1-3.5-3.9,8.8-6,20.5-10.2,28.9s-2.5,3.9-5.3,3.5c-1.4,0-.7,0-1.1-1.1-4.2-10.9-5.3-26.8-9.9-37.8-1.1-2.5-2.1-3.2-3.5-5.3h14.1l-.4.4Z"/>
  <path class="st0" d="M164.4,98.2c-5.6-4.6-21.5-9.5-24.4-.4-2.8,8.5,14.5,13.8,19.8,17.6,14.8,9.9,9.9,26.8-7.4,28.6-4.6.4-18-.7-20.1-5.6-1.1-2.1-1.1-5.6-2.1-8.1,4.9,3.9,11.6,9.2,18.4,9.2,9.5,0,15.2-9.9,6.7-16.9-7.1-6-23.3-8.8-24-20.8-.7-15.2,20.8-15.2,30.7-11.3l2.1,8.1h.4v-.4Z"/>
  <path class="st0" d="M379.7,98.5s-2.5,2.8-2.5,3.9v14.8h22.9v-12.7c0-1.8-2.1-4.6-3.2-5.6h13.4c-4.2,3.9-2.1,10.6-2.5,16.6,0,6-2.1,18.7,0,24,.4,1.1,1.8,1.4,1.8,2.8h-12.4c1.1-1.4,3.2-4.2,3.2-5.6v-14.5l-1.1-1.1h-22.2v17.3c0,1.1,1.8,2.8,2.5,3.9h-12.4c0-1.1,1.4-1.8,1.8-2.8,1.4-4.6,1.4-33.9,0-38.1-.4-1.1-1.1-1.4-1.4-2.5h12.4l-.4-.4Z"/>
  <path class="st0" d="M526.2,98.5c8.1,10.2,15.2,21.9,23.3,32.1.4.4,0,1.1,1.4.7v-27.2c0-1.8-2.1-4.6-3.2-5.6h9.9c0,1.1-2.5,3.5-2.5,4.6v40.2h-4.9c-10.2-10.2-17.3-24-26.5-34.6v28.2c0,1.4,2.1,4.2,3.2,5.3h-10.6c1.1-1.4,2.1-2.1,2.5-3.9.7-4.6.7-15.9.7-21.2s.7-14.1-3.2-18.4h9.9v-.4Z"/>
  <path class="st0" d="M599.9,141.2c-19.1,7.1-42.4-.7-38.5-24.7,2.8-18,20.8-21.9,35.6-18v7.8c-21.9-20.1-39.9,16.9-20.5,30,3.5,2.5,14.8,5.3,15.9-.7.4-2.8,0-10.9-.7-13.8-.4-1.1-1.8-1.4-1.8-2.8h9.9v21.2h0v1.1Z"/>
  <path class="st0" d="M451.4,98.5c3.5.7,9.5,4.2,10.2,8.5,2.5,14.8-11.3,16.2-22.6,15.9.7,6.4-1.8,14.1,2.5,19.4h-12.4c1.1-1.4,2.1-2.1,2.5-4.2,1.1-6,1.1-29.3,0-35.3,0-1.8-1.4-2.5-2.5-3.9,6.7.7,15.5-1.1,22.2,0h0v-.4ZM439,119.4c3.5,0,8.1.7,11.3-1.4,4.6-2.8,4.2-12.4-.4-15.2-2.1-1.1-10.9-2.1-10.9.4v15.9h0v.4Z"/>
  <path class="st0" d="M486.7,98.5c7.8,1.1,12.4,8.1,9.9,15.9-2.5,8.5-15.2,8.5-22.2,8.5.7,6.4-2.1,14.5,3.2,19.4h-13.4c2.5-2.5,2.8-6,3.2-9.5.7-9.9-1.4-20.5-.7-30.4l-2.5-3.5c6.7.7,15.5-1.1,22.2,0h0l.4-.4ZM474.7,119.4h8.8s2.8-1.8,3.5-2.1c3.5-3.2,3.2-11.3-1.1-14.1-2.1-1.1-11.3-2.5-11.3,0v15.9h0v.4Z"/>
  <path class="st0" d="M359.6,98.9l1.4,6.7c-3.9-2.5-8.1-4.6-13.4-4.2s-8.1,3.5-6,8.5c2.1,5.6,20.8,8.8,22.6,18.7,2.5,15.2-14.8,17.3-25.4,13.8s-5.3-4.2-6-9.5c4.6,2.8,8.8,7.4,14.8,7.4s13.4-6.7,7.1-12.7c-5.6-5.3-19.4-7.8-20.8-17.6-1.8-14.8,16.6-12.7,26.1-10.6h-.4v-.4Z"/>
  <path class="st0" d="M243.5,98.5c0,1.8-1.4,2.1-2.1,3.9-1.1,3.5-1.1,29.6-.4,34.2,0,2.5,1.1,3.5,2.5,5.3h-12.4c0-1.1,1.4-1.4,1.8-2.1,1.4-2.8,1.1-30.4.7-35.3,0-3.2-1.4-3.2-2.5-5.6h12.4v-.4Z"/>
  <path class="st0" d="M425.9,98.5c-5.3,6.7-2.8,17.3-2.5,25.1,0,6-1.8,14.1,2.5,18.4h-13.4c.4-1.1,1.4-1.4,2.1-2.5,2.1-4.6,1.4-30.7.4-36.7,0-2.1-1.8-2.1-1.8-3.9h12.4l.4-.4Z"/>
  <path class="st0" d="M513.1,98.5c-3.9,3.5-2.1,8.1-2.5,12.7-.4,7.4-1.4,16.2-.7,23.6,0,2.8,1.1,4.9,2.8,7.1h-13.4c.4-1.1,1.4-1.4,2.1-2.8,2.5-5.3.7-19.4.4-25.8,0-4.2,1.1-9.9-.7-13.8-.7-1.1-1.4-.7-1.8-1.8h13.8v.7Z"/>
  <path class="st0" d="M109,80.2v71.6H0v-71.6s109.1,0,109.1,0ZM47.2,81.6H2.4l44.8,30v-30h.4-.4ZM106.5,81.6h-44.1l-1.1,1.1v28.9l44.8-30s.4,0,.4,0ZM47.2,150.4v-30L2.8,150.4h44.8-.4ZM106.5,150.4l-44.8-30v28.9l1.1,1.1h44.1s-.4,0-.4,0Z"/>
</svg>