<?xml version="1.0" encoding="UTF-8"?>
<svg id="Livello_2" data-name="Livello 2" xmlns="http://www.w3.org/2000/svg" viewBox="0 0 725.77 273.39">
  <defs>
    <style>
      .cls-1 {
        fill: #74d800;
      }

      .cls-2 {
        fill: #fff;
      }
    </style>
  </defs>
  <g id="Livello_1-2" data-name="Livello 1-2">
    <g>
      <path class="cls-1" d="M476.12,144.89c0,9.04-1.81,17.41-4.92,24.3-4.99,11.13-13.31,18.42-22.74,18.42s-17.74-7.29-22.72-18.42c-3.1-6.88-4.92-15.25-4.92-24.3h55.3Z"/>
      <g>
        <polygon class="cls-2" points="47.83 130.52 93.27 130.52 93.27 43.68 93.27 43.6 140.52 43.6 140.52 130.52 258.63 130.52 258.63 96.35 184.32 96.35 184.32 81.04 254.38 81.04 254.38 53 184.32 53 184.32 38.39 258.63 38.39 258.63 4.22 140.52 4.22 93.27 4.22 49.67 4.22 0 4.22 0 43.68 47.83 43.68 47.83 130.52"/>
        <path class="cls-2" d="M316.44,61.16c0-12.18,6.23-20.65,16.62-20.65,8.83,0,13.5,5.82,13.5,15.88v74.13h44.14V43.42C390.7,15.89,379.02,0,357.99,0,339.82,0,325.53,12.18,318.01,38.12h-2.86V3.97h-42.84v126.55h44.14V61.16h-.01Z"/>
        <path class="cls-2" d="M545.72,64.37c0-39.64-21.55-61.85-73.74-61.85h-66.73v128h65.43c47.51,0,75.04-25.55,75.04-66.15ZM450.69,97.8v-62.57h15.58c25.19,0,34.27,6.45,34.27,29.13,0,23.88-9.09,33.43-33.23,33.43h-16.62,0Z"/>
        <path class="cls-2" d="M71.22,141.49c-42.06,0-64.91,25.7-64.91,69.58s27,62.31,64.13,62.31,50.63-17.66,56.08-37.91l-36.87-9.87c-2.34,6.75-5.97,12.72-18.95,12.72s-19.47-5.97-21.03-23.11h77.63c.78-6.49.78-11.16.78-17.14,0-34.01-17.66-56.6-56.86-56.6v.02ZM87.84,198.35h-38.17c1.3-18.17,7.53-24.41,20.25-24.41s18.43,7.53,17.91,24.41h.01Z"/>
        <path class="cls-2" d="M353.33,179.92c11.68,0,15.58,8.31,18.17,18.17l40.5-7.27c-4.15-30.9-19.47-49.33-57.9-49.33-41.02,0-64.91,25.19-64.91,68.29s25.45,63.61,64.91,63.61c36.87,0,54.52-18.69,57.9-48.03l-40.24-9.35c-1.82,10.38-6.75,19.21-17.91,19.21-13.5,0-19.47-10.39-19.47-28.3,0-19.47,7.53-27,18.95-27h0Z"/>
        <path class="cls-2" d="M425.75,189.4v80.09h45.45v-80.09c-6.36,6.19-14.19,9.78-22.74,9.78s-16.35-3.59-22.72-9.78h0Z"/>
        <path class="cls-2" d="M677.22,191.6c-20.77-4.67-22.33-8.57-22.33-13.24,0-4.93,4.15-7.53,12.72-7.53,10.64,0,14.54,4.41,16.36,14.28l38.95-8.05c-3.89-21.29-15.84-35.57-54.26-35.57s-55.3,14.02-55.3,39.47c0,22.33,11.42,33.23,46.48,41.54,20.77,4.67,23.63,8.05,23.63,12.98-.26,5.45-4.41,7.79-12.72,7.79-10.39,0-17.91-4.15-20.77-16.1l-39.21,8.05c2.6,21.03,14.54,38.17,58.94,38.17,39.21,0,56.08-14.54,56.08-39.98,0-18.95-7.79-32.71-48.55-41.8h-.02Z"/>
        <path class="cls-2" d="M236.54,176.17c0,12.84,1.26,33.37,2.76,51.81l-2.76.23c-4.78-15.87-12.57-37.81-19.61-52.04l-14.83-31.27h-61.58v125.08h40.47v-30.1c0-13.07-1.51-39.67-3.02-59.51l2.51-.23c6.28,17.74,15.08,40.14,20.36,51.11l17.85,38.74h58.06v-125.08h-40.22v31.27h0Z"/>
        <polygon class="cls-2" points="484.38 269.49 602.49 269.49 602.49 235.79 528.18 235.79 528.18 220.68 598.24 220.68 598.24 193.01 528.18 193.01 528.18 178.6 602.49 178.6 602.49 144.9 484.38 144.9 484.38 269.49"/>
      </g>
    </g>
  </g>
</svg>