<?xml version="1.0" encoding="UTF-8"?>
<svg id="Layer_1" xmlns="http://www.w3.org/2000/svg" version="1.1" viewBox="0 0 400 400">
  <!-- Generator: Adobe Illustrator 29.8.1, SVG Export Plug-In . SVG Version: 2.1.1 Build 2)  -->
  <defs>
    <style>
      .st0 {
        fill: #fff;
        fill-rule: evenodd;
      }
    </style>
  </defs>
  <path class="st0" d="M312.5,81.5c1.4,10.5,17.3,24.5,21.4,24.1,2.7,0,4.1-13.6,4.1-24.1s.3-10.9-2.7-11.9c-5.1,10.2-18.4,12.2-22.8,11.9h0ZM313.5,76.7c11.6,0,21.8-9.2,21.8-17s-1.7-6.8-6.1-7.5c.7,1,1,1.7,1,3.4,0,6.1-9.2,12.9-19.4,12.9s-4.8,2.4-4.8,3.7c0,3.1,3.1,4.4,7.1,4.4h.3ZM311.2,64.2c-1.7,0-3.7,0-5.1-2.4-1-2-.7-5.1-2.4-6.5,2,.7,3.7.7,5.4.7,5.1,0,9.9-3.4,13.3-3.4s3.1,1.7,3.1,3.1c0,4.8-9.9,8.8-14.3,8.8h0v-.3ZM65,150.5c3.7,0,3.1-22.8,9.2-22.8s2,1.4,2,3.1c0,5.1-2.4,12.9-2.4,17s.7,2.7,1.7,2.7c2.7,0,7.1-25.2,11.9-25.2s2,1.4,2,2.7c0,5.4-6.8,20.4-6.8,24.8s0,1.4.7,1.4c2.7,0,8.2-11.9,9.9-17.7,1-3.1,2.4-4.8,3.4-4.8s2,1.4,2,3.7c0,6.1-5.4,20.1-10.2,29.2-3.7,7.1-9.5,17.7-9.5,23.5s.7,6.1,4.8,9.9c-7.1-.3-9.9-1-12.6-6.5-11.9,23.5,21.8,21.1,10.2,41.8-2-3.7-18.7-7.5-18.7-29.2s16.7-29.9,16.7-37.7-.7-2.7-2-4.1c-3.7-3.1-3.7-5.4-6.5-5.4s-4.8,4.8-2,9.2c1,1.4,1.7,2.4,1.7,3.7,0,3.1-4.8,11.2-8.2,11.2s-6.1-8.5-6.1-22.1,2.7-24.5,6.1-24.5,1.4.7,1.4,1.7-.3,4.4-.3,9.2,1.4,5.4,2,5.4h0l-.3-.3ZM233.6,42.4c1.7,0,2,4.4,2.4,6.8,0,1.4.3,1.4,1,1.4,1.4,0,3.4-5.1,4.8-5.1,2,0,7.8,5.8,17,5.8,13.3,0,25.8-9.2,25.8-25.8S273.4.2,257.8.2s-12.9,3.7-15.6,3.7-4.4-4.4-5.8-4.4-1,1-1,3.1,0,5.1-1.4,5.1c-2.7,0-12.9-7.5-12.9-4.8s6.8,10.2,6.8,12.2-6.8,3.7-6.8,5.1c0,2.4,7.1,2.7,7.1,6.1s-7.5,5.4-7.5,7.8,7.5.7,7.5,2.7-5.4,9.9-5.4,12.2,0,.7.7.7c2,0,8.5-7.1,9.9-7.1h0l.3-.3ZM92.2,204.9c0-2,1.4-4.4,3.7-4.4s4.4,1.4,4.8,3.7-1.4,4.4-3.7,4.8c-2.4,0-4.4-1.7-4.8-3.7h0v-.3ZM80.3,208.7c.3,3.7,4.1,6.5,7.8,6.1,1.4,0,2.7-.7,3.7-1,1,3.4,3.7,5.8,7.8,5.4,4.1,0,6.8-3.7,6.5-7.8,0-1,0-1.7-.7-2.4h.7c3.7-.7,6.8-4.1,6.5-7.8-.3-4.1-4.1-6.8-7.8-6.5-1.4.3-2.7.7-3.4,1.7-1-3.4-3.7-6.1-7.8-5.4-3.7,0-6.8,4.1-6.5,8.2,0,.7,0,1.4.7,2h-.7c-3.7.7-6.8,3.7-6.5,8.2h0l-.3-.7ZM325.4,6.7c0,1.7,1.4,2.7,2.7,2.7s2.7-1.4,2.7-2.7-1.4-2.7-2.7-2.7-2.7,1.4-2.7,2.7h0ZM263.9,111.1c0,2.4,2,4.8,4.8,4.8s4.8-2,4.8-4.8-2-4.8-4.8-4.8-4.8,2-4.8,4.8h0ZM264.2,124.7c0,2.7,2.4,5.1,5.1,5.1s5.1-2.4,5.1-5.1-2.4-5.1-5.1-5.1-5.1,2.4-5.1,5.1h0ZM248.3,134.2c0,4.1,3.4,7.5,7.5,7.5s7.5-3.4,7.5-7.5-3.4-7.5-7.5-7.5-7.5,3.4-7.5,7.5h0ZM252.3,118.6c0,2.4,2,4.4,4.4,4.4s4.4-2,4.4-4.4-2-4.4-4.4-4.4-4.4,2-4.4,4.4h0ZM238.1,127.4c0,2.4,2,4.4,4.4,4.4s4.4-2,4.4-4.4-2-4.4-4.4-4.4-4.4,2-4.4,4.4h0ZM249.3,101.9c0,3.7,3.1,7.1,7.1,7.1s7.1-3.1,7.1-7.1-3.1-7.1-7.1-7.1-7.1,3.1-7.1,7.1h0ZM257.8,88.3c0,2.4,2,4.1,4.1,4.1s4.1-1.7,4.1-4.1-1.7-4.1-4.1-4.1-4.1,1.7-4.1,4.1h0ZM237.7,98.8c0,2.4,1.7,4.1,4.1,4.1s4.1-2,4.1-4.1-2-4.1-4.1-4.1-4.1,1.7-4.1,4.1h0ZM237,113.1c0,3.7,3.1,6.8,6.8,6.8s6.8-3.1,6.8-6.8-3.1-6.8-6.8-6.8-6.8,3.1-6.8,6.8h0ZM223.4,120.3c0,3.4,2.7,6.1,6.1,6.1s6.1-2.7,6.1-6.1-2.7-6.1-6.1-6.1-6.1,2.7-6.1,6.1h0ZM227.2,104.6c0,2.4,2,4.4,4.4,4.4s4.4-2,4.4-4.4-2-4.4-4.4-4.4-4.4,2-4.4,4.4h0ZM212.2,266.8c0,2.4,2,4.4,4.4,4.4s4.4-2,4.4-4.4-2-4.4-4.4-4.4-4.4,2-4.4,4.4h0ZM93.9,84.6c0,2.4,2,4.4,4.4,4.4s4.4-2,4.4-4.4-2-4.4-4.4-4.4-4.4,2-4.4,4.4h0ZM88.1,74.7c0,2.4,2,4.4,4.4,4.4s4.4-2,4.4-4.4-2-4.4-4.4-4.4-4.4,2-4.4,4.4h0ZM92.9,182.8c4.8,0,8.5-3.4,8.5-10.9v-11.2c0-4.4,0-9.2,3.1-12.6v4.4c0,9.5,5.4,16,5.4,25.2s-1,5.4-3.7,5.4-2.4-2.4-2.7-2.4-1,1.4-1,3.1,1.7,6.1,6.1,6.1,7.1-3.7,7.1-7.8c0-9.9-7.8-20.7-7.8-31.6s1.4-7.8,2-10.2c0,21.8,18.7,37.7,18.7,46.9s-1.7,3.7-3.7,3.7-3.7-2-3.7-3.4,0-1-.3-1c-.7,0-2.7,2-2.7,5.1s3.1,8.2,8.5,8.2,9.9-5.4,9.9-9.9c0-11.6-22.4-28.9-22.4-47.6s.7-8.5,2.7-12.2c-14.6,9.2-19,21.8-19,32.6s-.3,14.3-5.1,14.3-3.1-2.4-4.1-2.4-1,2-1,2.4c0,4.1,3.1,6.5,6.1,6.5h0l-.7-.7ZM283.6,73c4.8,0,8.5-2,8.5-3.4s-.7-.7-2-.7-4.4,0-9.9-1c-4.8-.7-8.2-2.4-9.5-2.4s-.7,0-.7.7c0,2.7,5.4,7.1,13.6,7.1h0v-.3ZM259.8,59.1c1.4-1,7.5.7,15.6-3.4,1-.7,2-.7,2.7-.7,3.7,0,2.7,4.4,6.5,4.4s6.1-2.4,8.5-2.4c3.4,0,8.2,10.2,8.2,15.3s-8.5,9.2-18.4,9.2c-14.6,0-23.5-12.9-23.5-21.1s.3-1,.7-1h0l-.3-.3ZM95.2,224.3c-3.7,1-9.5,6.5-9.5,15.6s11.6,27.5,30.6,27.5,20.1-11.2,20.1-18.7c0-16.7-10.2-28.2-23.5-28.2s-13.6,5.4-13.6,13.3,5.4,18,18.7,18,9.9-4.4,9.9-9.5-4.4-11.9-11.2-11.9-3.4,1.4-3.4,3.4,3.7,5.4,8.2,5.4,2,0,2.4-.3v1.4c0,2.4-2.4,4.1-6.1,4.1-5.4,0-10.9-4.1-10.9-10.9s3.4-6.8,8.5-6.8c9.9,0,15.6,8.8,15.6,17.3s-4.4,12.2-13.3,12.2c-17.7,0-26.2-16-22.4-32h0ZM84.4,104.6c-2.4.7-7.8,3.7-7.8,9.2s3.1,6.5,6.8,6.5,3.4-.3,4.4-1c-3.1-3.1-4.1-6.1-4.1-9.5s0-3.7.7-5.1h0ZM57.5,106.3v1.7c0,5.1,2.7,8.2,6.5,8.2s6.1-1.7,8.8-5.4h-4.1c-4.1,0-8.5-1-11.2-4.8h0v.3ZM53.4,116.2c0,8.5,2.4,12.2,7.1,12.2s8.2-2.4,13.9-7.5c-4.4,1-7.5,1.7-10.5,1.7s-7.1-1.7-10.2-6.5h-.3ZM221.1,288.9c5.4,0,5.1-.3,6.5-.3s1.7,1,1.7,1.7c0,2.4-5.4,5.4-15,5.4s-9.2-3.1-9.9-6.1c-5.4,3.4-13.9,6.8-22.1,6.8-22.4,0-28.2-9.9-35.4-12.9-5.4-2.4-13.6,2.4-25.2-10.5,1.7.3,3.7.3,5.4.3,10.2,0,15.6-5.1,15.6-12.9s0-2,0-3.1c3.1,1.4,10.2,6.5,11.9,16,0,1,4.8,2,7.5,2s9.2-1.7,9.9-8.2c13.3-1,22.1-8.8,24.1-18.7,4.8,1.7,10.2,5.8,11.6,8.2,1.7-.7,4.1-1,6.5-1s7.5.7,12.2,2c0-1.4.3-3.1,2.7-3.1,3.4,0,2.4,3.7,3.4,5.8.7,1,3.4,1.7,3.4,4.1s-1.7,2.7-2.7,2.7h-1.4c-2,.7-2.4,16.7-11.6,16.7s-13.3-5.4-16-12.6c-.7-2-2.4-3.4-4.1-3.4s-2.7.3-4.8,2.7c-6.1,6.5-16,12.2-27.9,12.2s-6.8,0-7.5,0-.3,0-.3,0c0,.7,3.7,3.7,11.9,3.7,19.4,0,24.1-10.9,27.2-10.9s1.7,0,2.4,1.7c4.4,10.5,14.3,12.9,20.4,12.9h0l-.7-1.4ZM158.5,67.6c7.1,0,10.5,6.1,10.5,13.3s-1,7.5-2.4,7.5-1.4-2.4-1.4-4.8-.7-3.7-1.7-3.7c-1.7,0-3.1,4.4-3.1,8.5s.3,5.4,2.4,5.4,2-.7,2.7-1.4c-.3,5.1-4.1,9.5-9.5,9.5-9.9,0-13.3-11.2-14.3-18-5.8,6.1-11.2,10.5-20.7,10.5s-13.3-6.5-13.3-12.9.7-6.8,3.1-6.8,0,9.2,5.8,9.2,3.7-1,5.1-4.8c.7-2,1.4-4.4,1.4-6.5,0-3.1-.7-4.8-2.7-4.8s-4.1,1.4-5.1,2c2.7-7.8,9.2-11.9,16-11.9s13.3,7.8,13.3,16.3,0,2.7-.3,3.7c3.7-6.1,8.8-10.9,14.6-10.9h0l-.3.3ZM131,1.9c0-.7-3.4-1.4-7.8-1.4-7.1,0-6.1,6.1-11.6,6.1s-4.4-6.1-11.6-6.1-8.5.7-8.5,1.7,5.1.7,5.1,4.4-11.2,5.1-11.2,7.1,1,1,2,1c2.4,0,6.1-1,9.2-1s3.1.3,3.1,1.7c0,2.7-6.1,7.8-6.1,9.9s.7,1,1,1c2,0,6.1-5.4,9.5-5.4,5.8,0,2,12.6,5.1,12.6s1.7-12.2,6.5-12.2,6.8,8.5,9.2,8.5,1.4-.7,1.4-1.4c0-2.4-3.4-7.1-3.4-10.2s1.4-2.7,3.1-2.7,6.1,1.7,7.8,1.7,1.4,0,1.4-1c0-2.7-9.9-5.4-9.9-8.8s5.4-3.4,5.4-5.1h0l.3-.3ZM287.7,218.9c-2.4,0-15,17-23.5,17s-3.7-3.7-3.7-6.5,1-2.7,4.4-3.4c19-4.4,14.6-18.4,30.9-18.4s18.7,6.1,18.7,19.7-20.7,32.6-23.8,32.6-5.4-3.7-5.4-6.1.3-1.7,2.7-2.7c10.5-4.1,16.7-13.9,16.7-18.7s-.7-2-2-2-9.9,18.4-18.7,18.4-12.6-5.4-12.6-8.2c0-4.4,17.7-12.6,17.7-18.7s-1-2.4-2-2.4h0l.7-.7ZM299.6,212.1c-1.7,0-3.1,1.4-3.1,4.1s2.7,5.4,4.1,6.1c.7.3,2,1,3.1,1,3.1,0,5.8-1,5.8-3.4s-5.1-7.5-9.9-7.5h0v-.3ZM156.8,13.2c0,2,6.8,6.1,10.2,6.1s2.4-2.4,2.4-5.1-1.4-3.4-4.4-3.4-8.2,1-8.2,2.4h0ZM168,34.9c0-6.5-18-18.7-18-23.8s0,0,0-.7c1.4-3.7,16.3-6.1,16.3-9.2s-2.7-1.4-4.1-1.4c-10.2,0-25.2,3.7-25.2,7.5s13.6,12.9,13.6,17.3-.7,1.7-2,1.7c-3.7,0-11.9-4.4-15.6-4.4s-2.4,1.4-2.4,3.1c0,5.4,6.1,15.3,6.1,18.4s0,.7-.7.7c-2,0-11.2-10.9-14.6-10.9s-1.4,1.7-1.4,4.1v3.7c0,2.4,0,4.1-1.4,4.1-2.7,0-4.1-8.2-6.8-8.2s-3.4,14.3-6.1,14.3-.3-15.6-3.4-15.6-7.1,10.5-9.9,10.5-1-1-1-1.7c0-3.1,1.7-8.5,1.7-11.6s-.3-2.4-1.7-2.4c-3.4,0-10.9,5.4-13.6,5.4s-1,0-1-.7c0-2.7,11.9-10.9,11.9-14.6s-16.7-1.4-16.7-5.4,11.9-7.1,11.9-10.9S70.1-.4,64.6-.4s-9.9.7-9.9,2.7,14.6,3.7,14.6,6.1-15.3,8.8-15.3,12.6,21.4,0,21.4,3.7-18.7,20.1-18.7,25.2,1,1.7,2,1.7c5.8,0,20.7-10.9,24.5-10.9s1.7,1.7,1.7,3.4c0,2.7-1,7.1-1,10.5s.7,4.4,2.7,4.4c4.1,0,7.8-6.8,10.5-6.8s1.4,20.4,6.8,20.4,6.5-22.1,9.2-22.1,5.1,6.5,7.8,6.5,1.7-11.2,5.4-11.2,15,13.3,19.7,13.3,2-1.4,2-2.7c0-5.8-8.2-19-8.2-23.1s0-1.4,1.7-1.4c4.4,0,17,6.1,22.8,6.1s3.1-1,3.1-2.4h0l.3-.7ZM318.3,161.8c1.7-5.4,4.1-9.2,7.5-15.3-3.7-1.7-13.3-5.8-13.3-12.2s9.5-13.6,11.6-13.6,1,.7,1,2c0,4.1-2,10.2-2,13.6s2,6.1,3.7,6.1,7.1-6.5,7.1-13.3c0-11.6-10.2-15.3-13.3-15.3s-8.5,4.8-21.1,4.8c-23.8,0-28.9-23.5-28.9-33.7s0-.7,0-.7c.7,0,2.7,2.7,10.2,2.7s7.5-1,12.9-1c13.3,0,19,9.2,27.2,20.7,5.1,3.1,16.7,8.2,16.7,22.1s-13.3,19-16.3,32.3c5.1-.7,8.2-9.5,13.3-9.5s3.7,2,3.7,5.4-2.7,12.2-8.2,16.7v-1.7c0-3.1-1.4-7.5-4.8-7.5-5.4,0-7.1,6.1-10.2,10.9-3.1-11.2-7.5-21.4-15.3-27.5-7.8-6.1-21.1-2.7-21.1-14.3s2-7.5,2-10.9,0-2.4-1-3.1c10.5,4.1,6.8,10.9,13.3,18.4,4.1,4.8,15.3,9.2,21.8,27.9v-3.1c0-16.3-21.4-32.3-23.5-38.8,12.6,1.4,14.6,4.4,20.7,21.1,1.4,3.4,5.1,11.9,5.1,16h0l1,.7ZM82,72c.7-1.7,1-4.1,1-6.5,0-5.4-2.4-13.3-9.9-13.3s-7.5,3.4-7.5,7.5c0,8.8,8.8,12.2,16.3,12.2h0ZM72.8,99.9c-3.7,0-7.5-4.4-7.5-8.5s1.7-5.1,2.7-5.1.7.3.7,1c.7,5.4,4.1,8.5,7.5,9.9,0,0,.7.3.7.7,0,.7-2,1.7-4.1,1.7h0v.3ZM85.7,89.3c0,1.7-1,3.4-2.7,3.4-3.7,0-6.8-5.8-6.8-9.2s1.4-2.4,2.7-2.4,1,0,1.7.3c1,.7,1,2.7,2,4.4.7,1,2.7,2.4,2.7,3.1h0l.3.3ZM81.6,77.8h-2.4c-3.7,0-8.5.7-12.9,3.4-9.9,6.1-8.2,16.3-9.9,18.7v1.4c0,1,1,2,2,2h2c2.7,0,5.4,1.7,9.9,1.7s5.4-.7,9.2-2.7c7.8-4.1,10.9-13.6,10.9-15.3s-1.7-1.7-3.1-3.7c-1.7-2.4-.7-3.1-1.7-4.4-.7-.7-2-.7-4.1-.7h0v-.3ZM93.5,95.4c-2.4,2.7-5.1,7.8-5.1,12.6s3.7,10.9,9.2,10.9,7.8-4.8,7.8-9.2c0-7.5-6.8-12.6-12.2-14.3h.3ZM69.7,74.4s-3.1,2.4-7.1,2.4-8.5-3.4-8.5-8.5,1.7-6.8,5.8-8.8v1.7c0,6.1,3.4,10.9,9.9,12.9h0v.3ZM265.6,138.6c0-2,2-4.1,4.1-4.1s4.4,1.7,4.4,4.1-2,4.4-4.4,4.4-4.1-1.7-4.1-4.4h0ZM268.7,265.1c.7,0,1.4,0,1.4,2.4s-1,5.4-5.1,8.2c-2.7,1.7-6.5,3.4-11.9,3.4,1-2.7,1.7-5.4,1.7-8.2s0-1.7,0-2.4h1.4c8.8,0,12.6-3.4,13.3-3.4h-.7ZM269.3,254.2c1-.7,1-2,1-3.1v-2.4c0-3.1-4.8-5.1-11.6-5.1s-12.2,3.7-12.2,5.1v5.1c0,2,4.8,4.1,10.9,4.1s9.2-1.4,11.9-3.7h0ZM275.1,255.3c-2.7,2-9.5,7.1-20.7,7.1s-8.5-1.7-9.5-1.7-2.4,1-3.4,2.4c-2.7,3.1-6.1,8.8-6.1,15s3.4,8.8,9.9,8.8c20.7,0,36-12.9,36-23.5s-3.4-8.5-6.1-8.5h0v.3ZM278.9,162.8c0,2.7,1,6.1,3.7,6.1s4.4-3.4,4.4-7.5-.7-7.8-.7-9.5.3-1,.7-1c1.7,0,3.1,4.8,5.1,4.8s5.1-3.7,6.1-3.7.3.3.3.7c0,1.7-2.4,5.4-2.4,6.8s6.5,1.4,6.5,2.7-6.8,1.7-9.9,3.1-5.1,3.1-5.1,5.1,2,2.7,5.4,2.7c7.5,0,12.6-4.1,14.3-4.1s.7,0,.7.7c0,1-3.7,4.8-3.7,6.5s6.8,4.1,6.8,5.1c0,0-.7.3-1.4.3h-4.4c-1.4,0-1.7,0-2,.7-.7,1,0,6.8-1.4,6.8s-5.1-12.9-13.6-12.9-2,1-2,2.7c0,4.4,4.4,9.5,8.5,11.9,1.7,1.4,5.1,2.4,5.1,3.1,0,1.4-7.1,0-7.1,2.4s1,5.1,1,6.8,0,1.4-.7,1.4c-1.4,0-4.4-6.1-6.1-6.1s-4.1,3.7-5.4,3.7-.7,0-.7-.7c0-2.7,4.1-8.2,4.1-13.9s0-8.5-3.4-8.5-5.4,4.1-6.8,8.5c-.7,2.4,0,11.9-2,11.9s-1.4-6.1-3.4-6.1-5.1,3.1-6.5,3.1-.3,0-.3-.3c0-1.4,3.1-5.4,3.1-6.5,0-1.7-7.1-1.7-7.1-3.1s2.7-1.4,5.4-1.7c5.4-1,13.9-5.1,13.9-10.9s-6.1-9.2-10.2-11.9-4.4-2.4-4.4-3.4,2.7-1,3.7-1c1.7,0,3.4,0,3.4-1.4v-4.4c0-1.4,0-2,.7-2,1.7,0,4.1,5.4,5.1,5.4,1.7,0,4.1-4.4,5.8-4.4s.7,0,.7,1.4c0,4.1-2,8.8-2,12.6h0l-1.7-1.7ZM226.5,130.5c1.4,9.2,13.6,4.8,13.6,16s-.3,4.1-.3,6.1,0,4.4,2,4.4,2.4-1.4,2.4-3.1-.3-4.1-.3-5.1c0-3.7,2.7-4.8,4.4-4.8,4.1,0,7.5,4.4,13.6,4.4-1.4,7.1-16,5.1-16,12.9s3.7,4.8,6.5,4.8,3.1-.3,3.1-2.4v-3.1c0-.7.3-1,1-1,2.4,0,14.3,9.2,14.3,11.9s-12.6,5.1-16.3,5.1-1.4-.7-1.4-1.4,1.7-3.1,1.7-4.4-1.7-1.7-6.1-1.7-3.7,0-3.7,2c0,3.1,4.8,6.5,4.8,9.2s-1.4,3.4-4.8,3.4-7.5-2.4-7.5-6.1,3.1-6.1,3.1-8.2-.3-1.4-1.7-1.4c-4.1,0-5.1,10.9-19.7,11.9,2.4-2,4.4-4.4,4.4-9.2s-.7-4.1-.7-6.8,1.7-5.1,3.7-5.1c4.1,0,6.1,5.8,8.8,5.8s3.1-1.4,3.1-3.4c0-8.5-16-7.1-16-19s1-7.1,4.1-12.6h0v.7ZM247.2,202.2c0,1.7,1,2.7,2.7,2.7s2.7-1.7,2.7-3.4-2-5.4-4.1-5.4-.7,1.4-.7,2.7-.7,2.4-.7,3.4h0ZM241.8,187.6c11.6,2,17.7,10.9,17.7,19s-3.4,10.9-9.9,10.9-9.9-3.7-9.9-9.9,3.7-9.5,3.7-14.3-.7-3.7-2-5.4h0l.3-.3ZM227.2,206.3c1,1,1.4,2,1.4,3.4s-.7,3.4-.7,5.4,2,5.1,4.8,5.1,5.1-2.4,5.1-5.4-4.4-8.2-10.5-8.2h0v-.3ZM263.6,199.2c.7,1.4,1,2.4,1,3.4,0,3.1-2,6.1-2,9.2s2.7,6.5,6.8,6.5,7.5-3.7,7.5-7.8-5.4-10.9-13.6-11.2h.3ZM229.6,193.4c5.1.7,6.1,2.4,6.1,3.7,0,2.4-2,3.1-4.4,3.1h-5.1c-1.7,0-4.8.7-6.8,2.7,1.4,0,3.4,1.4,3.4,3.4,0,6.5-17.7,1-17.7,17.3s9.2,18,22.8,18,11.6-2.4,11.6-5.1-3.7-.7-3.7-2.4,1.4-2,1.4-3.4-.3-1.7-1.4-1.7c-2,0-5.8,3.1-13.3,3.1s-11.9-3.4-11.9-8.2.3-1.7,1-1.7,1.7.3,2.4.3.7-.3.7-1.7,0-4.8,2-4.8,6.1,7.8,21.1,7.8,15-1,18.4-4.4c0,12.2-9.5,28.2-29.2,28.2s-31.6-16.3-31.6-31.6,13.6-32.3,32.6-32.3,8.8,1.7,8.8,3.7-7.1,1-7.8,4.4h0l.7,1.4ZM150,80.5c0-2-.3-2.4-1-2.4-1,0-2.4,1.4-4.1,4.4,0,4.1,1,5.8,2,5.8s3.1-3.7,3.1-7.8h0ZM135,85.2c1.4,0,2.7-1.4,5.4-4.4v-4.4c0-1.7-1-4.8-2-4.8-3.4,0-5.1,8.8-5.1,11.2s.7,2.4,1.4,2.4h.3ZM152.7,94.8c2.7,0,5.8-10.5,5.8-17s0-3.1-1-3.1c-2.4,0-6.1,10.9-6.1,17s.7,3.4,1.4,3.4h0v-.3ZM125.9,89c3.7,0,8.2-20.4,8.2-23.8s-.3-1.7-1-1.7c-3.4,0-8.2,19.4-8.2,23.5s0,1.7,1.4,1.7h0l-.3.3ZM137.8,97.1c-4.8,0-5.1,5.8-5.1,17.3-3.4-7.5-9.2-15.6-16.3-15.6s-6.5,3.1-6.5,8.5,0,2.7,0,3.7c.7-1.7,2.4-2.7,4.4-2.7,4.8,0,10.5,3.7,14.3,8.5-4.4-.7-8.5-1.7-11.9-1.7s-4.1,0-5.8,1c-3.1,1.4-7.5,6.1-7.5,13.3s0,2.4.3,3.7c3.7-8.5,13.9-12.6,20.7-12.6s2.4,0,3.1,0c-3.4,3.1-4.1,8.5-4.4,12.2,0,1.7-.7,1.7-2,1.7,0,3.7,2.7,9.2,2.7,11.9s-.7,1.7-1,2c0,4.8,4.8,8.5,4.8,11.6s0,1.4-.7,1.7c0,2,5.4,5.4,6.1,6.8,1,2.4,2,2.4,2.4,2.4,1.7,0,4.8-2,4.8-4.1s-.7-1.4-1-1.7c-2-1.7-3.1-4.8-4.1-7.1-.7,0-1.7-.3-2-1.7s-.7-6.5-1.7-9.2c-1.4-.3-2-1-2-3.7s1-7.1,1-9.2c-.7,0-1.7-.3-1.7-1.7,0-3.4,3.4-6.1,4.4-10.9,6.1,4.8,7.8,9.2,7.8,13.6s-.3,4.4-.7,6.1c4.8-2.4,11.6-5.8,11.6-12.6s-1.7-8.5-14.3-10.2c3.7-1.4,8.8-2,12.9-2,7.1,0,11.2,2,11.9,7.1,1.4-2,2.4-4.8,2.4-7.1,0-5.4-4.4-8.8-10.2-8.8s-12.6,3.4-19,7.8c2.7-6.1,4.8-9.5,8.5-9.5s1,0,1.7,0c-1.4-4.8-6.1-9.5-8.8-9.5h0l1,.7ZM67.7,28.8c0,2-8.5,9.5-11.2,9.5s-1.4-1.4-1.4-2.4c0-2,1-5.4,2-6.1,1.4-1.4,4.8-2,7.1-2s3.4,0,3.4,1.4h0v-.3ZM323.4,176.7c5.4,0,9.9,7.1,9.9,15.6s-4.1,18.7-11.6,25.2c0-15-18.4-10.2-18.4-20.7s3.4-7.8,7.1-7.8,6.1,1,8.2,3.1c-2-1.7-3.1-4.4-3.1-7.1,0-4.1,2.7-8.2,7.5-8.2h.3ZM241.8,64.2c-1-1.4-4.1-2-5.8-2-4.8,0-8.2,3.4-8.8,6.5-.3-1-.7-2.4-.7-3.7,0-4.8,3.4-10.9,11.2-10.9s9.9,3.7,10.9,3.7,2-1,3.1-1,1.4,1.7,1.4,3.1c0,4.4-2,11.9-6.8,14.6-1-2-2.7-4.1-5.4-5.4-.7,0-1-1-1-1.7,0-1.4,1-2.7,2.4-3.4h0l-.3.3ZM225.1,72c2.7,2.7,5.4,4.1,8.5,4.1s2.7-.3,3.4-.3,1.7.3,1.7,1.4-1,3.1-2.4,4.4c1.4.7,2.7.7,4.4.7,6.1,0,13.6-4.1,13.6-13.9,1.4,1.7,2,5.4,2,7.1,0,11.9-8.8,16.7-17,16.7s-7.8-1.7-8.5-1.7c-2,0-2,4.1-3.4,4.1-2.7-.3-4.8-6.1-4.8-11.9s1-7.1,2.7-9.9h0l-.3-.7ZM148.6,40c0,3.7,13.6,22.8,16.3,22.8s3.7-3.7,3.7-7.1,0-1.7-.7-2.4c-2-2.7-16-13.6-19-13.6s-.7,0-.7.7h0l.3-.3ZM307.4,30.8c0-7.8-18.7-9.9-18.7-11.6s10.5-3.7,16-4.1c-8.2-10.5-20.1-9.5-20.1-11.2s8.8-3.4,17-3.4,13.3,1.7,13.3,6.8-2.4,5.8-2.4,10.2,1.4,4.4,4.4,4.4,4.1-3.7,4.1-7.5-.7-5.4-.7-7.1c0-4.8,3.1-7.8,7.8-7.8s4.8,1.7,10.2,1.7c-3.1,1.7-4.1,5.1-4.1,6.5,0,4.8,3.1,7.8,3.1,17.3,0,17.3-16.3,23.5-36,23.5s-11.2-.3-17-1.4q-1,0-1-1c0-1.4,7.8-2,7.8-9.2s-1-5.4-1-6.5.3-1,1-1c1.7,0,5.1,6.5,11.2,6.5s5.8-.7,5.8-5.4h0l-.7.3ZM325.8,20c0,9.9-7.1,17.3-20.1,19.4h4.1c15,0,20.7-6.8,20.7-12.6s-1.7-6.1-4.8-6.8h0ZM315.6,108.4c0-2.4-5.8-2.4-6.5-9.2,0-1-.3-2.7-1.7-2.7-2,0-.3,6.1-2.7,6.1-5.1,0-6.8-9.9-8.5-9.9s-1,.3-1,1.7v3.4c0,1.4-.3,2.4-1.7,2.4-3.1,0-5.4-6.8-8.2-6.8s-1,.3-1,1c0,1.4,2,3.7,2,5.1,0,2.7-7.1,1.4-7.1,3.4s1,1.4,2.4,1.4c2.4,0,6.1-1,7.8-1s2.7,0,2.7,1.7-4.1,3.4-4.1,5.1.7,1,1.4,1c3.1,0,8.2-5.1,11.9-5.1s2.4,0,2.4,1.4-3.7,4.1-3.7,6.1.3,1.4,1,1.4c2,0,4.8-5.1,8.5-5.1s3.4.7,4.8.7,1.4-.7,1.4-1h0v-1ZM236.7,24.4c0-1.4-4.4-3.4-4.4-4.8s0-.3.7-.3c1.4,0,3.4.3,5.1.3s1.7-6.1,2.7-6.1,2,5.8,3.4,5.8,4.1-1.7,5.1-1.7.3,0,.3,0c0,.7-2.7,3.7-2.7,4.8s6.1,2,6.1,3.1-6.1,1-6.1,2,2.4,3.7,2.4,4.8,0,.3-.3.3c-1,0-4.4-1.7-5.4-1.7s-3.1,4.4-4.1,4.4-.7-.3-.7-1v-4.4c0-.3-.3-1-1-1h-4.8c-1,0-.7,0-.7-.3,0-1,4.4-4.1,4.4-4.8h0v.7ZM258.1,45.5c-7.8,0-12.9-3.7-12.9-5.8s.7-1.7,1.7-1.7c2.4,0,7.8,3.7,9.5,3.7s.7,0,.7-1c0-2-2-5.4-2-6.8s.3-.7,1-.7c3.1,0,7.5,1.4,9.9,1.4s1-.3,1-1c0-2.4-7.1-7.1-7.1-8.5s8.8-3.4,8.8-5.4-12.2-.7-12.2-2.7,2.4-4.1,2.4-5.4-.3-.7-1.4-.7-6.1,2-8.5,2-2.4,0-2.4-1.7,4.4-5.4,10.9-5.4c10.9,0,17.3,7.5,17.3,20.1s-11.2,19.7-17,19.7h.3ZM183.7,235.5c0,1-.3,2-1.4,3.1-1.4-2-4.8-3.4-6.1-3.4-11.2,0-7.1,16.3-19,16.3s-5.4-.7-7.5-.7-1.4,0-1.4,1c0,2.7,4.1,9.9,15.3,9.9s22.1-6.8,22.1-15.6-.3-3.1-1-4.4c.3-.7,1.7-1,2.4-1,1.7,0,2.7,2,4.4,2s3.1-1.4,3.1-3.1-.7-2.4-2-3.1c1-.7,1.7-1.7,1.7-3.1,0-2-1.4-3.7-3.4-3.7s-1.7.3-2.4,1c0-2-1.4-3.7-3.4-3.7s-2.7,1.4-2.7,3.1,1.4,3.1,1.4,5.1h0v.3ZM154.1,240c-3.4,0-8.2-3.4-8.2-5.4s1.7-2.7,2.7-2.7c2.7,0,7.8,3.4,7.8,6.1s-.7,1.7-2,1.7h0l-.3.3ZM123.5,215.1c8.8,2,13.3,6.8,13.9,12.6,1,5.4,2,9.9,4.1,11.9,2.7,3.1,8.2,5.8,12.9,5.8s7.1-1.4,7.1-5.1-5.4-12.9-13.3-12.9-1.7,0-2.7,0-2.4,0-3.4-1c-1.7-1.7-2.4-9.9-5.4-14.6-3.7-5.4-7.5-7.1-12.9-7.1s-8.2,2-8.2,5.1,1,3.1,8.2,5.1h0l-.3.3ZM178.6,201.9c0-5.1-10.2-5.1-10.2-12.6s1.4-5.1,3.7-8.5c1,5.8,3.4,8.8,8.2,10.5,9.9,3.7,11.2,9.2,11.2,15,0,9.9-6.8,22.1-24.8,22.1s-24.5-12.9-24.5-23.5.7-6.1,2.7-6.1,2,1.4,3.4,2.7c5.1,5.1,10.2,6.1,18,6.1s12.2-2.7,12.2-5.8h0ZM178.9,209.7c-3.7,1.7-5.4,1.4-5.4,5.4s-.3,3.4-.3,4.4,0,2,1.7,2c4.1,0,10.2-6.8,10.2-12.6s-1-2-1.7-2-1.7,1.7-4.4,3.1h0v-.3ZM143.9,154.3c0-7.1,16.7-10.9,16.7-19.4s-.7-4.1-1.7-5.8c5.8,3.1,10.2,8.5,10.2,12.9,0,7.5-7.8,11.2-7.8,16s8.5,6.5,8.5,13.3-8.2,12.2-8.2,19.4,4.1,10.2,9.9,10.9c-2,.3-3.7.7-5.4.7-11.2,0-22.4-9.2-22.4-20.1s2.4-10.2,5.8-13.6c3.1,2.7,6.1,4.4,8.2,4.4s2.7-1,2.7-2c0-4.1-16.3-7.8-16.3-16.7h0Z"/>
  <path class="st0" d="M166.7,389.6c3.1,0,8.5-1,12.6-7.8-2.4-5.4-4.1-16-4.4-20.1-1.4-20.1,6.5-39.1,15-39.4,6.1-.3,11.2,5.4,11.9,15,1.7,25.2-6.8,35.4-10.9,44.5.7,3.4,6.5,9.5,12.2,9.5s4.4-1,5.1-2c-.3-1.4-.7-3.4-.7-6.1,0-14.6,9.2-26.9,17.3-26.9s10.2,8.5,10.2,13.9-5.4,11.9-13.9,17.3c1.4,1.4,4.1,2.4,6.5,2.4,11.9,0,18-14.3,22.8-27.5.7-2.4,2.4-6.1,5.1-6.1,5.1,0,7.1,32.6,15.3,32.6s6.5-7.1,6.5-12.9-1.4-4.4-1.4-10.5,3.4-12.2,8.2-12.2,4.1,3.1,4.1,6.5c0,13.3-9.5,38.1-23.5,38.1s-9.9-18.4-13.6-18.4-9.9,18.4-30.6,18.4-6.8-1.7-9.9-5.1c-5.1,3.4-9.2,4.8-13.9,4.8-7.8,0-10.9-7.8-13.9-7.8s-7.8,8.2-20.4,8.2-11.6-13.3-15-13.3-7.8,13.3-12.9,13.3c-8.8,0-10.5-23.1-18.4-23.1s-25.2,23.5-30.3,22.8c-2,0-3.1-1.7-2.7-3.7,0-2.7,2.7-10.5,3.7-14.3,1.7-6.5,3.1-13.3,4.1-15.3s3.1-3.7,5.1-3.7,1.4,1.7,1.4,3.4c1,5.1,2.4,10.2,4.1,10.2,3.1,0,12.6-18.4,18-18.4s7.8,28.9,17,28.9,5.4-3.7,7.5-8.2c0-7.8,2.4-18.7,8.5-18.7s6.5,9.9,3.4,18.4c0,10.2,6.5,12.6,10.9,12.6h0v1ZM321.4,370.2c0-5.1-4.8-12.6-11.9-12.6s-18.4,10.2-18.4,24.1,7.8,16.7,15.6,16.7c13.6,0,22.1-11.2,26.5-20.4,2,6.1,3.4,20.4,8.5,20.4s3.4-1,6.1-6.8c6.1-13.9,12.2-29.9,20.4-29.9s1.4,5.4,8.8,5.4,6.1-3.1,6.1-6.1c0-4.8-4.4-8.5-10.9-8.5-19.4,0-23.5,29.2-26.9,29.2-5.1,0-3.4-23.5-7.1-23.5s-5.1,4.1-5.4,5.8c-2.7,10.9-10.2,26.5-22.1,26.5s-7.5-1-7.5-3.7,18.4-3.4,18.4-17.3h0l-.3.7ZM194.9,343c-.3-5.8-1.7-8.5-4.8-8.2-4.1,0-6.1,13.3-5.1,26.9.7,8.8,1.7,10.2,3.1,10.2,2.4,0,7.8-16,6.8-28.9h0ZM161.2,330.7c0-3.4-3.1-5.4-6.5-5.4s-7.8,4.1-7.1,9.2c0,3.1,2.4,6.1,6.1,6.1s7.8-5.1,7.5-9.9h0ZM225.8,372.9c0-3.4-2-6.5-4.1-6.5s-6.1,2-6.1,8.8,1.7,7.8,2.7,8.8c6.1-2,7.8-6.8,7.8-10.9h0l-.3-.3ZM306.7,366.1c4.4,0,5.4,5.1,4.4,8.2-1,3.1-4.8,6.5-10.5,7.8-1.4-3.1-1.7-16,6.1-16h0ZM21.5,369.2c0-8.5,0-17,3.7-28.9,1.7-6.5,3.4-8.8,9.2-9.9,4.4-.7,4.1,4.1,3.1,9.5-2.4,12.6-3.4,18.4-2.4,32.6.7,15,7.8,20.7,15,20.7,11.2,0,16.3-9.2,18.4-22.8,1.7-10.9.3-16-.7-19.4-.7-1.7-2.4-6.1-3.1-9.2-.7-7.8,3.1-11.6,6.1-12.6,3.7-1,5.1.7,6.5,5.1,2,6.8,2,15.3,1.4,27.9-.7,17-9.2,37.4-30.6,37.1-18.4-.3-26.2-12.2-27.2-30.3h.7Z"/>
</svg>