<?xml version="1.0" encoding="UTF-8"?>
<svg id="Layer_1" xmlns="http://www.w3.org/2000/svg" version="1.1" viewBox="0 0 400 400">
  <!-- Generator: Adobe Illustrator 29.8.1, SVG Export Plug-In . SVG Version: 2.1.1 Build 2)  -->
  <defs>
    <style>
      .st0 {
        fill: #fff;
        fill-rule: evenodd;
      }
    </style>
  </defs>
  <path class="st0" d="M226.5,252.8c2.5-5.8,6.8-10.8,7.2-17.4l-33.9-151.5c-.9-9.1.3-15.4,4.2-23.4,3.6-7.3,11.1-20.9,15.9-27.1,2.4-3.2,12.2-13.2,15.3-15.1,2.8-1.8,6.1-2.4,9.3-3.3,16.2-4.3,36.2-8.8,52.7-11.8,8.1-1.5,16-3.4,15.2,8.1-5,10.3-14.6,20.2-13.2,32.4l41.8,185.7c.6,7,.6,14-2.3,20.6l-74.7,129.5c-2,3.9-5.5,6.4-8.4,9.5-3.6,3.9-7,11.2-13.8,8.5l-124.5-86.9c-4-3.5-7.4-7-9.7-11.8-16.1-63.8-29-128.5-43.9-192.6-3.4-11-17.3-16.9-25.8-23.5-2.5-3.8-1.9-7.3.9-10.7,2-2.5,12.4-12.9,14.8-13.9l65.9-14.8c3.1-.4,6.1.6,8.8,2,6.1,3,27.9,18.6,32,23.6,2.9,3.7,5.1,8.5,6.7,13l34,151.4c2.3,5.1,17.2,15.4,22.6,18.7.9.6,1.8,1.3,2.9,1h0ZM302.5,7.5l-63.3,14.6c-2.8,2.1-4.3,5.2-6.2,8.2-7.1,11.4-17,26.2-15.2,39.9l33.9,151.6-1.7,9.1-18.5,32.5c-10.6-8-22.3-14.6-32.2-23.4-2.5-3.1-3.7-6.6-4.8-10.5-13.2-47.4-19.9-98.7-32.8-146.4-1.3-4.5-4.1-9.9-7.3-13.3-3.8-3.8-24-18.2-28.8-20.4-4.2-2-7-.7-11.2.1-17,3.3-35.9,7.6-52.7,11.8-7.6,1.9-9.8,1.8-2.6,7.1,8.8,6.5,18.3,10.4,22.4,21.6,16.3,61,25.3,124.1,41.6,185,2.3,8.6,4.3,12.6,11.3,18.3l122.4,85.5,2.9-2.3,73.5-128.1c3.8-8.2,3.3-13.3,1.7-22-11.4-60.7-29-121.4-40.9-182.2-2-13.5,7.3-23.9,13.3-34.9-.2-2.7-2.6-2.2-4.6-1.9h0Z"/>
  <path class="st0" d="M337.1,12.4c0,4.5-3.7,8.2-8.2,8.2s-8.2-3.7-8.2-8.2,3.7-8.2,8.2-8.2,8.2,3.7,8.2,8.2ZM325.2,8.2c-.5.5-1.1.5-1.7,1.4-3.3,5.2,4,12.4,9.7,6.6,1.1-1.1,1.7-.5,1.9-3.1.4-5.3-3.3-8.1-8.5-6.6-1.1.3-1.1,1.3-1.5,1.7h0Z"/>
  <path class="st0" d="M325.2,8.2l6.2-.8c1.6,2,0,4.3.3,5.6.2,1.1,2.1,1.6,1.6,3.3l-4.5-2.7-1.8,3.6-1.8-9Z"/>
</svg>