<?xml version="1.0" encoding="UTF-8"?>
<svg xmlns="http://www.w3.org/2000/svg" viewBox="0 0 170.08 170.08" fill="#ffffff" fill-rule="evenodd"><g><path d="M84.44,94.97c.71-1.61,1.89-3,2-4.84l-9.46-42.24c-.26-2.53.07-4.28,1.18-6.52,1.01-2.03,3.09-5.82,4.43-7.55.68-.88,3.4-3.67,4.27-4.22.78-.5,1.7-.68,2.58-.92,4.52-1.21,10.08-2.46,14.69-3.29,2.26-.41,4.45-.96,4.25,2.25-1.38,2.87-4.07,5.63-3.68,9.02l11.66,51.76c.16,1.96.18,3.91-.64,5.73l-20.83,36.11c-.55,1.09-1.53,1.79-2.33,2.66-1.01,1.1-1.96,3.13-3.86,2.37l-34.7-24.23c-1.11-.97-2.06-1.95-2.7-3.29-4.48-17.77-8.08-35.81-12.23-53.69-.96-3.06-4.83-4.7-7.18-6.55-.69-1.06-.52-2.04.24-2.99.55-.69,3.47-3.6,4.12-3.87l18.36-4.12c.87-.1,1.69.16,2.46.55,1.71.85,7.78,5.18,8.91,6.58.82,1.03,1.42,2.38,1.88,3.61l9.48,42.21c.65,1.42,4.8,4.28,6.29,5.2.25.16.51.35.82.28ZM105.62,26.62l-17.65,4.08c-.79.58-1.21,1.46-1.72,2.28-1.98,3.19-4.73,7.3-4.23,11.13l9.44,42.26-.46,2.55-5.17,9.06c-2.95-2.22-6.22-4.07-8.97-6.51-.7-.87-1.03-1.85-1.33-2.92-3.69-13.22-5.54-27.5-9.13-40.81-.36-1.25-1.13-2.77-2.04-3.7-1.05-1.06-6.7-5.07-8.04-5.69-1.18-.55-1.95-.2-3.13.03-4.74.92-10,2.11-14.69,3.29-2.13.54-2.73.51-.72,1.98,2.46,1.8,5.11,2.9,6.23,6.01,4.53,17,7.05,34.59,11.6,51.57.64,2.4,1.21,3.5,3.15,5.09l34.11,23.84.8-.64,20.48-35.71c1.06-2.28.92-3.72.47-6.13-3.17-16.92-8.09-33.85-11.39-50.78-.55-3.75,2.04-6.67,3.7-9.74-.05-.76-.72-.62-1.29-.54Z" /><path d="M115.27,27.96c0,1.26-1.02,2.29-2.29,2.29s-2.29-1.02-2.29-2.29,1.02-2.29,2.29-2.29,2.29,1.02,2.29,2.29ZM111.93,26.81c-.13.13-.31.15-.46.4-.91,1.45,1.11,3.46,2.71,1.85.31-.31.46-.13.52-.86.11-1.49-.93-2.25-2.36-1.84-.32.09-.31.36-.41.46Z" /><path d="M111.93,26.81l1.73-.23c.44.55.02,1.21.07,1.57.05.31.59.44.45.91l-1.25-.75-.5,1-.5-2.5Z" /></g></svg>
